<?xml version="1.0" encoding="UTF-8"?>
<svg viewBox="0 0 1000 400" xmlns="http://www.w3.org/2000/svg">
 <defs>
  <filter id="b">
   <feGaussianBlur stdDeviation="15.76057"/>
  </filter>
  <filter id="h" x="-.04238" y="-.15618" width="1.0848" height="1.3124">
   <feGaussianBlur stdDeviation="27.01813"/>
  </filter>
  <filter id="g" x="-.05498" y="-.232" width="1.11" height="1.464">
   <feGaussianBlur stdDeviation="22.58218"/>
  </filter>
  <filter id="f" x="-.05154" y="-.2175" width="1.1031" height="1.435">
   <feGaussianBlur stdDeviation="21.1708"/>
  </filter>
  <filter id="e" x="-.05917" y="-.32272" width="1.1183" height="1.6454">
   <feGaussianBlur stdDeviation="15.09967"/>
  </filter>
  <filter id="d" x="-.03295" y="-.17703" width="1.0659" height="1.3541">
   <feGaussianBlur stdDeviation="8.28288"/>
  </filter>
  <filter id="c" x="-.04678" y="-.23053" width="1.0936" height="1.461">
   <feGaussianBlur stdDeviation="11.93863"/>
  </filter>
  <linearGradient id="a" x1="131.99" x2="128.68" y1="-299.76" y2="296.3" gradientUnits="userSpaceOnUse">
   <stop stop-color="#fff" offset="0"/>
   <stop stop-color="#fff" stop-opacity="0" offset="1"/>
  </linearGradient>
 </defs>
 <path transform="matrix(.72859 0 0 .72859 367.9 228.59)" d="m125.86-192.24c-36.76 11.509-56.647 69.74-101.17 44.033-55.905 4.0699-120.39-1.2494-168.8 29.534-35.83 15.832 47.822 1.4752 1.9013 16.137-36.179 11.662-86.43 27.315-109.45-9.5024-33.431-9.0188-112.26 15.751-76.638 51.137 17.906 12.108-35.388 8.1551-44.802 12.299-22.716-0.76787-62.607 30.972-50.514 30.45 32.535 9.848 68.477 20.61 96.109 44.133 42.893 36.316 96.451 15.302 148.31 26.689 37.597 1.6759 69.873 26.623 106.38 27.933 38.036 4.9074 107.94 36.359 126.77 33.446-58.609 12.351 34.207 22.807 52.596 22.791 21.21 0.80332 24.372-2.1123 9.6292 11.649 38.937 8.5848 80.753 4.436 120.69 2.9098 51.787-10.286 107.42-10.386 156.1-31.076 18.347-45.84 100.07-44.405 147.9-62.754 55.964-11.131 95.892-53.557 134.75-43.003 6.7648-12.473 56.318-2.6891 88.346-21.978-40.888-13.419-79.227-5.9716-101.29-30.378-36.626 14.677-40.029-35.252-83.396-29.458-40.988-23.85-84.797 9.4031-122.12-2.6267 7.8881-19.744 58.958-9.2485 47.607-9.0545 25.674 5.4381 83.549-6.6958 25.161-11.469-26.908-3.214-101.85 9.222-54.222-13.393-52.423 0.5369-97.618-37.535-150.4-38.886 23.071-62.431-81.877-33.965-116.55-30.46-62.732 0.36907 48.68 22.215-0.11902 31.014-47.324 12.312-51.173-34.223-82.778-50.115zm374.97 112.91-1.2411 0.06577 1.2411-0.06577zm-1.25 0.0625c-7.7274-4.4599-11.527 5.2672 0 0zm-5.375-0.8125c-4.7368-0.84226-2.9794-0.52977 0 0zm-434.28 194c6.8834-2.1455-10.173-0.23328 0 0zm158.97-278.47c-17.209 1.3321-28.971-0.06371 0 0zm65.375 6.2188c-16.988 10.007-23.529-5.3978 0 0zm-163.88 10.719c1.8269 1.6172-2.8285 0.28701 0 0zm36.625 6.9688c-3.7027 4.2738-18.771-1.366 0 0zm-144.16 3.8125c-18.978 5.1619-17.08-1.2646 0 0zm260.44 0.8125c22.069-2.6557 81.733 21.692 57.64 22.453 9.0496-29.556-99.908-12.141-57.64-22.453zm-136.88 0.3125c-3.8357 6.6154-16.483-6.7961 0 0zm114.59 12.969c29.433-1.7404 32.731 10.436 2.221 6.8641-5.8843 3.6588-19.365-2.597-2.221-6.8641zm-35.75 6.1875c30.443 2.2217-21.188 5.4139 0 0zm26.781 4.6562c48.007-7.738 37.836 35.831-1.3675 18.077-6.0168-4.6685-3.4389-13.632 1.3675-18.077zm-32.062 14.719c73.38 9.5126-39.737 5.6358 0 0zm255.53 7.3438c21.8-0.06289 39.808 1.3454 6.7118 0.2525l-6.7118-0.2525zm-264.28 1.8438c13.809 0.13531 3.0223 0.02961 0 0zm207.88 5.3438c19.243 4.7752-34.073 2.2874 0 0zm106.56 18.844c17.975-1.8814 91.158 23.325 37.924 15.217-13.408-1.7336-29.171-3.2595-37.924-15.217zm-866.29 45.78c-0.26466 3.7951-6.7564-5.3915 0 0zm-2.8038 1.2358c4.5172-0.92141 11.882 8.1898 0 0zm1018.8 14.073c9.9404 3.0031 57.817-8.6247 22.947-1.1458 14.425-6.4591 36.851 0.75802 8.4787 2.9926-10.263-1.9071-25.926 12.914-31.426-1.8468zm-901.37 29.511c-0.02599 2.1803-3.8891-2.9653 0 0zm5.6616 10.343c-4.582 0.72541-2.3547 0.38488 0 0zm-55.331-6.7953c19.18 6.8964 98.718 7.0185 38.762 12.414-13.167-0.32334-27.345-2.7189-38.762-12.414zm102.11 9.5093c6.8851-2.6385 3.7594 10.626 0 0zm764.82 4.0874-0.77191 0.39164 0.77191-0.39164zm-530.16 41.038c20.107-2.9314 82.749 16.828 27.206 14.503-14.641 8.4265-63.907 8.668-27.206-14.503z" filter="url(#h)"/>
 <path transform="matrix(.72859 0 0 .75061 367.9 233.71)" d="m125.86-232.24c-36.76 11.509-56.647 69.74-101.17 44.033-55.905 4.0699-120.39-1.2494-168.8 29.534-35.83 15.832 47.822 1.4752 1.9013 16.137-36.179 11.662-86.43 27.315-109.45-9.5024-33.431-9.0188-120.3 22.707-82.907 57.388 20.374 11.199-46.841 15.294-59.863 21.524-27.815 1.7495-69.61 15.094-60.555 22.817 35.681 10.232 82.261 33.183 120.27 52.979 49.349 26.168 103.66-1.3873 155.51 10 37.597 1.6759 69.873 26.623 106.38 27.933 38.036 4.9074 107.94 36.359 126.77 33.446-58.609 12.351 34.207 22.807 52.596 22.791 21.21 0.80332 24.372-2.1123 9.6292 11.649 38.937 8.5848 80.753 4.436 120.69 2.9098 51.787-10.286 107.42-10.386 156.1-31.076 18.347-45.84 100.07-44.405 147.9-62.754 55.964-11.131 110.91-43.545 168.65-20.404 10.054-10.28 74.275 9.2822 109.35-7.9762-45.512-16.501-96.578-17.539-133.37-51.764-50.389 5.5015-59.505-48.236-106.22-44.673-40.988-23.85-84.797 9.4031-122.12-2.6267 7.8881-19.744 58.958-9.2485 47.607-9.0545 25.674 5.4381 83.549-6.6958 25.161-11.469-26.908-3.214-101.85 9.222-54.222-13.393-52.423 0.5369-97.618-37.535-150.4-38.886 23.071-62.431-81.877-33.965-116.55-30.46-62.732 0.36907 48.68 22.215-0.11902 31.014-47.324 12.312-51.173-34.223-82.778-50.115zm374.97 112.91-1.2411 0.06577 1.2411-0.06577zm-1.25 0.0625c-7.7274-4.4599-11.527 5.2672 0 0zm-5.375-0.8125c-4.7368-0.84226-2.9794-0.52977 0 0zm-434.28 194c6.8834-2.1455-10.173-0.23328 0 0zm158.97-278.47c-17.209 1.3321-28.971-0.06371 0 0zm65.375 6.2188c-16.988 10.007-23.529-5.3978 0 0zm-163.88 10.719c1.8269 1.6172-2.8285 0.28701 0 0zm36.625 6.9688c-3.7027 4.2738-18.771-1.366 0 0zm-144.16 3.8125c-18.978 5.1619-17.08-1.2646 0 0zm260.44 0.8125c22.069-2.6557 81.733 21.692 57.64 22.453 9.0496-29.556-99.908-12.141-57.64-22.453zm-136.88 0.3125c-3.8357 6.6154-16.483-6.7961 0 0zm78.844 19.156c30.443 2.2217-21.188 5.4139 0 0zm-5.2812 19.375c73.38 9.5126-39.737 5.6358 0 0zm255.53 7.3438c21.8-0.06289 39.808 1.3454 6.7118 0.2525l-6.7118-0.2525zm-264.28 1.8438c13.809 0.13531 3.0223 0.02961 0 0zm207.88 5.3438c19.243 4.7752-34.073 2.2874 0 0zm106.56 18.844c17.975-1.8814 91.158 23.325 37.924 15.217-13.408-1.7336-29.171-3.2595-37.924-15.217zm-883.28 63.625c-0.34714 4.3917-8.9698-5.4087 0 0zm-3.7812 1.7812c6.0888-1.6488 16.111 7.6933 0 0zm1065.5 14.812c15.071 6.4234 79.964 6.1396 33.982 6.2105 19.839-2.8502 48.459 8.4963 11.974 5.3228-14.506-4.736-37.431 5.244-45.956-11.533zm-930.09 11.125c-0.02346 2.1929-3.9272-2.6258 0 0zm5.6875 9.9688c-4.5902 1.0272-2.3569 0.52741 0 0zm-56.594 1.6875c19.92 3.0806 99.981-1.8346 39.93 5.4187-13.395 1.6097-27.977 1.8008-39.93-5.4187zm103.38 0.65625c6.8851-2.6385 3.7594 10.626 0 0zm765.72 4.6875-0.84375 0.34375 0.84375-0.34375zm-531.06 40.438c20.107-2.9314 82.749 16.828 27.206 14.503-14.641 8.4265-63.907 8.668-27.206-14.503z" fill="url(#a)" filter="url(#b)"/>
 <path transform="matrix(.72859 0 0 .68333 358.18 -13.207)" d="m-239.37 291.27c-21.405 6.09-42.864 11.069-64.385 14.812 34.423 9.369 65.036 26.019 101.68 22.408 27.768 0.37258 52.682-13.359 68.245 5.7498 24.314 9.7226 49.323 29.731 80.331 19.255 28.258-10.843 51.789-6.1612 80.481-0.16764 22.193 9.1376 46.833 21.833 73.376 14.915 32.564-4.4837 51.708 20.413 78.893 34.159 21.027 9.2863 56.682 10.251 69.724 20.966-0.73839 35.533 47.136 31.816 71.023 25.057 17.216-4.8596 42.84-15.83 36.909-38.179 32.09 7.5004 49.636-27.24 79.495-30.022 20.275-19.597 47.37-21.165 72.535-31.522 26.785-20.977-31.659-21.602-45.833-21.051-26.181 4.951-51.061-3.9116-77.332-1.6822-13.951 0.63277-30.193 5.6845-9.3278-5.3437-4.499-26.447-56.037-15.937-79.314-16.68-30.706-3.0698-61.998 25.319-89.605 9.1382-37.989-17.872-85.516-39.81-125.09-13.338-9.0037-10.646-44.05-23.103-40.953-30.821-22.911-3.317-70.301-19.956-91.017 11.682-24.756 16.922 29.44 45.643-1.591 41.788-21.122-9.5393-45.541-15.818-69.721-12.316-23.174-1.1013 3.3126 4.0743 3.5126-10.285-33.229 3.2422-65.788 1.1702-96.812-7.4118-8.1785-1.163-16.622-1.691-25.222-1.111zm118.22 17.165c9.8296 2.7737 18.022-4.4958 0 0zm401.15 13.278c-6.6557 3.7079-23.645 2.1447 0 0zm-130.38 12.5c31.512 3.9307-7.012 3.6811 0 0zm229.25 1.4062c-9.0599 4.3359-27.051 11.488-7.4865 2.4448l3.468-1.1837 4.0185-1.261zm-219.5 6.375c9.9212-1.4833 31.668 2.6724 8.2751 2.7635l-5.4939-0.16979-2.7812-2.5938zm203 4.4688c2.0786-0.48411 0.36832 0.60294 0 0zm-49.125 13.656c-5.5404 14.547-37.91 1.5085-11.306 1.2937l5.1485-0.62621 6.1574-0.66752z" filter="url(#g)" opacity=".74444"/>
 <path transform="matrix(.72859 0 0 .68333 358.18 -13.207)" d="m-241 268.12c-21.552 4.5642-43.104 8.4992-64.656 11.868 34.509 10.45 65.365 29.76 102.35 29.91 28.089 3.1081 53.25-9.1333 69.026 11.041 24.546 10.011 49.722 29.005 80.776 16.909 28.258-12.729 51.789-10.515 80.481-4.5217 22.193 9.1376 46.833 21.833 73.376 14.915 32.564-4.4837 51.708 20.413 78.893 34.159 21.027 9.2863 56.682 10.251 69.724 20.966-0.73839 35.533 47.136 31.816 71.023 25.057 17.216-4.8596 42.84-15.83 36.909-38.179 32.09 7.5004 49.636-27.24 79.495-30.022 20.275-19.597 47.37-21.165 72.535-31.522 26.785-20.977-31.659-21.602-45.833-21.051-26.181 4.951-51.061-3.9116-77.332-1.6822-13.951 0.63277-30.193 5.6845-9.3278-5.3437-4.499-26.447-56.037-15.937-79.314-16.68-30.706-3.0698-61.998 25.319-89.605 9.1382-37.989-17.872-85.516-39.81-125.09-13.338-9.0037-10.646-44.05-23.103-40.953-30.821-22.911-3.317-70.301-18.815-91.021 14.941-24.819 18.84 29.444 44.526-1.588 42.83-21.172-8.3528-45.724-13.857-70.094-10.129-23.41-1.8677 3.349 4.2304 3.5312-10.618-33.565 2.2364-66.502-2.4319-97.866-14.344-8.2566-1.9898-16.775-3.3191-25.446-3.4838zm119.47 26.745c9.9199 2.9226 18.168-4.639 0 0zm401.53 6.8477c-6.6557 3.7079-23.645 2.1447 0 0zm-130.38 12.5c31.512 3.9307-7.012 3.6811 0 0zm229.25 1.4062c-9.0599 4.3359-27.051 11.488-7.4865 2.4448l3.468-1.1837 4.0185-1.261zm-219.5 6.375c9.9212-1.4833 31.668 2.6724 8.2751 2.7635l-5.4939-0.16979-2.7812-2.5938zm203 4.4688c2.0786-0.48411 0.36832 0.60294 0 0zm-49.125 13.656c-5.5404 14.547-37.91 1.5085-11.306 1.2937l5.1485-0.62621 6.1574-0.66752z" fill="#fff" filter="url(#f)" opacity=".74444"/>
 <g transform="matrix(.72859 0 0 .72859 346.04 -26.414)" filter="url(#c)" opacity=".75">
  <path d="m-40.535 245.87c32.649 13.047 132.05 19.101 1.7891 7.5759 30.726-9.9705 119.98-56.146 120.99-8.1535-17.889 10.982 12.426 10.891 10.835 10.754-87.384-7.5183-68.799 0.02661-36.265-11.579 45.943-15.142 102.41-31.659 107.98 26.033 5.3399-0.6396 21.373-1.3986 16.02-1.9188-20.513-1.9936-41.29-0.29012-61.778-2.5282-11.404-1.2458 22.792-3.3695 34.263-3.244 89.246 0.97667 63.506-2.3166 106.47 4.1553 6.0896-0.2204 24.357-0.40157 18.269-0.66121-21.671-0.9242-43.39-0.36186-65.059-1.3342-5.323-0.23887 10.633-0.87691 15.961-0.86896 30.731 0.04581 61.491 2.4726 92.189 1.0302 26.628-1.2512-54.159 1.3836-79.736-6.1264-33.392-11.064-173.96-29.539 3.3167-17.738 21.062 1.402 60.617 30.781 79.79 42.311 52.904 39.522-172.69 14.65-71.544-13.495 41.223 0.61925 82.463 0.49198 123.67 1.8578 61.581 2.0412-34.111 32.001-89.453 13.946-7.6108-5.2305-108.74-22.281-106.82-31.919 1.274-6.4002 10.857-7.2441 16.285-10.866 54.067 0.54388 119.11 1.0439 169.61 27.67-3.9611 15.207-1.0822 8.1402-8.4043 21.293l-67.916-4.8821c8.0734-4.1751 7.4036-1.9002-1.9486-6.8423-30.389-7.9302-151.98-32.979-24.822-27.374 1.5109-20.361 85.341 11.192 101.73 23.16 32.303 11.09-3.7058-2.6316-46.943 4.7866-3.387 0.5811 4.6945 5.0198 7.0418 7.5297l-22.249 0.78488c-9.0503-0.25216-36.068-1.1048-27.075-2.1592 22.794-2.6729 45.864-1.822 68.795-2.733-10.309-0.86567-20.731-0.84911-30.928-2.597-1.4038-0.24063-3.9799-4.0468-2.841-3.1915 46.315 34.782-88.894 34.515-101.59 16.424-128.53-94.743 55.231-104.49 108.43-41.63 13.137 46.473 1.1745-14.97-74.057 23.558-18.935 9.6972 42.542-0.87528 63.816-0.86935 4.4194 0.00123-8.8111 0.76166-13.229 0.88345-96.309 2.6551-65.674 4.343-111.41 1.1732-35.167-4.5242-19.603-1.8422 51.012-2.8753 10.408-0.15226-20.667 2.7481-31.069 3.1291-95.683 3.5051-68.066 15.042-105.81-2.9912-36.207-46.149 109.43-34.717 36.6-21.408-35.606 12.84-126.63 48.601-118.16 2.4749 92.985-4.1002 69.69-8.5189 20.322 14.206-50.036 2.5728-98.174 11.541-141.77-15.835l65.684-8.9173z" filter="url(#d)" opacity=".41111"/>
  <path d="m-47.944 236.51c32.931 13.879 132.13 19.329 3.4512 12.006 31.259-8.8251 121.74-53.042 123.67-4.4071-17.525 10.963 12.981 10.81 11.418 10.627-86.204-10.089-68-1.2242-35.06-14.284 46.416-17.35 103.69-37.641 109.26 20.051 5.3399-0.6396 21.373-1.3986 16.02-1.9188-20.513-1.9936-41.299-0.25427-61.778-2.5282-11.402-1.2661 22.792-3.3695 34.263-3.244 89.246 0.97667 63.506-2.3166 106.47 4.1553 6.0896-0.2204 24.357-0.40157 18.269-0.66121-21.671-0.9242-43.39-0.36186-65.059-1.3342-5.323-0.23887 10.633-0.87691 15.961-0.86896 30.731 0.04581 61.491 2.4726 92.189 1.0302 26.628-1.2512-54.159 1.3836-79.736-6.1264-33.392-11.064-173.96-29.539 3.3167-17.738 21.062 1.402 60.617 30.781 79.79 42.311 52.904 39.522-172.69 14.65-71.544-13.495 41.223 0.61925 82.463 0.49198 123.67 1.8578 61.581 2.0412-34.111 32.001-89.453 13.946-7.6108-5.2305-108.74-22.281-106.82-31.919 1.274-6.4002 10.857-7.2441 16.285-10.866 54.067 0.54388 119.11 1.0439 169.61 27.67-3.9611 15.207-1.0822 8.1402-8.4043 21.293l-67.916-4.8821c8.0734-4.1751 7.4036-1.9002-1.9486-6.8423-30.389-7.9302-151.98-32.979-24.822-27.374 1.5109-20.361 85.341 11.192 101.73 23.16 32.303 11.09-3.7058-2.6316-46.943 4.7866-3.387 0.5811 4.6945 5.0198 7.0418 7.5297l-22.249 0.78488c-9.0503-0.25216-36.068-1.1048-27.075-2.1592 22.794-2.6729 45.864-1.822 68.795-2.733-10.309-0.86567-20.731-0.84911-30.928-2.597-1.4038-0.24063-3.9799-4.0468-2.841-3.1915 46.315 34.782-88.894 34.515-101.59 16.424-128.53-94.743 55.231-104.49 108.43-41.63 13.137 46.473 1.1745-14.97-74.057 23.558-18.935 9.6972 42.542-0.87528 63.816-0.86935 4.4194 0.00123-8.8111 0.76166-13.229 0.88345-96.309 2.6551-65.674 4.343-111.41 1.1732-35.167-4.5242-19.603-1.8422 51.012-2.8753 10.408-0.15226-20.667 2.7481-31.069 3.1291-95.683 3.5051-68.066 15.042-105.81-2.9912-36.42-46.149 109.43-34.717 36.6-21.408-35.606 12.84-130.11 48.601-122.73 2.4749 91.209-4.1002 68.828-8.5189 18.509 14.206-50.723 2.5728-99.418 11.541-143.01-15.835l65.894-8.279z" fill="#fff" filter="url(#e)"/>
 </g>
</svg>
