<svg width="20" height="20" viewBox="0 0 20 20" fill="none" xmlns="http://www.w3.org/2000/svg">
<g clip-path="url(#clip0_105_1547)">
<path d="M11.25 10H6.25" stroke="black" stroke-linecap="round" stroke-linejoin="round"/>
<path d="M3.7881 17.2874C3.74416 17.4074 3.73807 17.538 3.77065 17.6616C3.80323 17.7852 3.87292 17.8958 3.97032 17.9786C4.06772 18.0613 4.18815 18.1122 4.31537 18.1244C4.4426 18.1366 4.57051 18.1095 4.68185 18.0468L17.8069 10.5397C17.9045 10.4857 17.986 10.4064 18.0427 10.3103C18.0994 10.2141 18.1293 10.1045 18.1293 9.99285C18.1293 9.8812 18.0994 9.7716 18.0427 9.67543C17.986 9.57925 17.9045 9.50002 17.8069 9.44597L4.68185 1.95769C4.57084 1.89561 4.44353 1.86887 4.31693 1.88105C4.19032 1.89323 4.07044 1.94374 3.9733 2.02585C3.87616 2.10796 3.80639 2.21775 3.7733 2.34057C3.7402 2.46338 3.74537 2.59336 3.7881 2.71316L6.24982 9.99988L3.7881 17.2874Z" stroke="black" stroke-width="2" stroke-linecap="round" stroke-linejoin="round"/>
</g>
<defs>
<clipPath id="clip0_105_1547">
<rect width="20" height="20" fill="white"/>
</clipPath>
</defs>
</svg>
