<?xml version="1.0" encoding="UTF-8" standalone="no"?><!DOCTYPE svg PUBLIC "-//W3C//DTD SVG 1.1//EN" "http://www.w3.org/Graphics/SVG/1.1/DTD/svg11.dtd"><svg width="100%" height="100%" viewBox="0 0 2209 1917" version="1.1" xmlns="http://www.w3.org/2000/svg" xmlns:xlink="http://www.w3.org/1999/xlink" xml:space="preserve" xmlns:serif="http://www.serif.com/" style="fill-rule:evenodd;clip-rule:evenodd;stroke-miterlimit:10;"><g><g><g><clipPath id="_clip1"><rect x="-2559.17" y="0" width="5833.33" height="1916.67"/></clipPath><g clip-path="url(#_clip1)"><path d="M3032.5,950l45.833,0c-225,37.5 -458.333,4.167 -683.333,-29.167c-187.5,-29.166 -366.667,-29.166 -554.167,-4.166c-30.833,4.583 -61.666,8.333 -92.083,11.25l18.75,25.833l-18.75,-25.833c-129.167,11.666 -254.583,9.583 -382.917,26.25c-66.666,12.5 -133.333,25 -200,37.5c-83.333,20.833 -162.5,12.5 -245.833,4.166c-233.333,-25 -466.667,-29.166 -700,-37.5c-141.667,-4.166 -283.333,-4.166 -429.167,-29.166c-25,-4.167 -58.333,-8.334 -83.333,-8.334c-279.167,-16.666 -562.5,8.334 -841.667,29.167c-207.083,14.167 -408.333,-2.083 -614.166,24.583c-0,0.417 -0.417,1.25 -0.417,1.667l-0.833,0.417l-0,-1.667c-3.75,0.417 -7.5,0.833 -11.25,1.25l-0,3.75l-6.25,2.083l-24.167,10.417l-0,-11.667c-1.25,0.417 -2.917,0.417 -4.167,0.834l0,12.5l-11.25,4.583l0,18.75l-5.416,0c-1.667,-2.5 -5,-4.583 -8.334,-4.583c1.25,-4.167 0,-7.917 -3.75,-10c3.75,-5 2.5,-10.834 -0.416,-16.25c-8.75,1.666 -17.917,3.333 -26.667,5c-118.333,23.333 -233.333,27.083 -346.25,19.583c-0.417,0.833 -0.417,1.667 -0.417,2.5c2.084,0.833 5,1.25 7.084,0c-2.917,1.667 -5.417,3.333 -7.5,5.417l-114.584,-0c-16.666,-0 -12.5,12.5 -12.5,12.5c0,-0 0,0.833 0.417,2.083c0.833,3.75 3.333,10.417 14.167,10.417l106.25,-0c-0,-0 -6.25,16.666 27.083,16.666l181.25,0c-0,0 2.083,6.25 27.083,6.25l137.5,0l-0.416,40.834l8.75,-0l-0.834,-40.834l508.75,0c0,0 14.584,14.584 45.834,14.584l284.166,-0c7.917,0.833 16.25,1.25 24.167,0.833l25.833,0c4.167,0 8.334,-0.417 12.5,-0.833l111.25,-0c0,-0 22.917,6.25 79.167,6.25l191.667,-0c-0,-0 6.25,2.083 17.5,4.583c10,2.083 24.166,3.75 41.666,3.75l113.334,0c-0,0 12.5,6.25 45.833,6.25l104.167,0c-0,0 20.833,2.083 58.333,2.083l70.833,0c0,0 5.417,4.584 18.75,7.917c6.667,1.667 14.584,2.5 25,2.5c7.084,0 15.417,0 24.584,0.417c32.916,0.416 76.25,1.666 94.166,1.666c22.917,0 54.167,2.084 93.75,4.167c39.584,2.083 58.334,6.25 114.584,6.25c10.833,0 22.083,0 34.166,0.417c51.25,0.833 112.084,3.75 157.5,3.75c56.25,-0 133.334,-2.084 195.834,-0c62.5,2.083 62.5,8.333 156.25,6.25c93.75,-2.084 97.916,12.5 243.75,12.5c145.833,-0 114.583,8.333 241.666,8.333c127.084,0 116.667,10.417 237.5,12.5c120.834,2.083 131.25,8.333 270.834,14.583c139.583,6.25 93.75,6.25 237.5,10.417c61.666,1.667 100.416,3.75 135.416,5.417l0,11.666l15.834,0l-0,-10.833c40.833,2.083 81.25,4.167 152.916,6.25c124.167,3.75 227.5,15.417 357.5,23.75l0,0.417l8.75,-0c15.417,0.833 31.667,2.083 47.917,2.916c4.167,0.417 8.333,0.417 12.5,0.834l-0,0.833l13.75,0c142.083,7.5 224.583,11.667 338.333,17.5c98.75,5 98.75,8.75 150,5.417l0,-201.25l6.25,-0l0,-114.584c-86.25,-0.416 -174.583,-1.666 -263.333,5.417Zm-2997.08,127.917l-0,-0Zm-0,-0c-0,-0.417 0.416,-0.417 -0,-0c0.416,-0.417 -0,-0.417 -0,-0Zm0.416,-0.417c0,0 0.417,0 0,0c0.417,0 0,0 0,0Zm0.834,-0.417l-0,0Zm1.666,-0.833l0,0Zm0.834,-0.833l0.416,-0l-0.416,-0Zm1.666,-0.417c0,0 0.417,0 0.417,-0.417c-0,0.417 -0.417,0.417 -0.417,0.417Zm2.084,-0.833l0.416,-0l-0.416,-0Zm6.25,-1.667c0.416,0 0.833,0 0.833,-0.417c-0,0.417 -0.417,0.417 -0.833,0.417Zm3.333,-0.417c0.417,0 0.833,0 1.25,-0.416c-0.417,-0 -0.833,-0 -1.25,0.416Zm3.75,-0.833l1.667,0l-1.667,0Zm10.833,-1.25l2.917,0l-2.917,0Zm5.417,0l3.75,0c-1.25,-0.417 -2.5,-0.417 -3.75,0Zm6.25,-0.417l6.667,0l-6.667,0Zm268.333,-41.666l0.417,-0l-0.417,-0Zm2.5,0.416l0.417,0c-0,0.417 -0.417,0 -0.417,0Zm2.084,0.834c0.416,-0 0.416,-0 0.833,0.416c-0.417,-0.416 -0.833,-0.416 -0.833,-0.416Zm2.083,0.833c0.417,0 0.417,0 0.833,0.417c-0.416,-0.417 -0.833,-0.417 -0.833,-0.417Zm2.083,0.833c0.417,0 0.417,0.417 0.834,0.417c-0.417,0 -0.834,-0.417 -0.834,-0.417Zm1.667,1.25c0.417,0 0.417,0.417 0.833,0.417c0,-0.417 -0.416,-0.417 -0.833,-0.417Zm2.083,1.25c0.417,0 0.417,0.417 0.834,0.417c-0.417,0 -0.834,-0.417 -0.834,-0.417Zm1.667,1.667c0.417,0.417 0.417,0.417 0.833,0.833c-0.416,-0.416 -0.833,-0.833 -0.833,-0.833Zm1.25,1.667c-0,0.416 0.417,0.416 0.417,0.833c-0,-0.417 -0,-0.417 -0.417,-0.833Zm1.667,2.083c-0,0.417 0.416,0.417 0.416,0.833c0,-0.416 -0.416,-0.416 -0.416,-0.833Zm1.25,2.5c-0,0.417 0.416,0.417 0.416,0.833c-0.416,-0.416 -0.416,-0.833 -0.416,-0.833Zm76.666,-11.667l0,0Zm0.834,-0.416l-0,-0Zm28.75,-9.167l-0,0Zm13.333,0l-0,0Zm12.083,4.167l0,-0Zm2.917,2.083c0.417,0 0.417,0.417 0.833,0.417c-0.416,-0 -0.416,-0.417 -0.833,-0.417Zm2.917,2.5c0.416,0.417 0.416,0.417 0.833,0.833c-0.417,-0.416 -0.833,-0.833 -0.833,-0.833Zm582.5,63.75c0.416,0 0.416,0 -0,0Zm0.833,-0.417l0.833,0l-0.833,0Zm0.833,0c0.834,-0.416 2.5,-0.833 4.167,-0.833l0.417,0c0.833,0 1.25,-0.417 2.083,-0.417l1.25,0c0.833,0 1.25,0 2.083,-0.416l9.584,-0c0.416,-0 1.25,-0 1.666,0.416c0.834,0 1.667,0.417 2.084,0.417c0.416,0 0.833,0.417 1.666,0.417c0.417,-0 0.834,-0 1.25,0.416c0.834,0.417 1.25,0.417 2.084,0.834c-0.834,-0.417 -2.084,-0.834 -2.917,-1.25c-0.417,-0 -0.833,-0.417 -1.667,-0.417c-0.833,0 -1.666,-0.417 -2.083,-0.417c-0.417,0 -1.25,0 -1.667,-0.416l-9.583,-0c-0.833,-0 -1.25,-0 -2.083,0.416l-1.25,0c-0.834,0 -1.667,0.417 -2.084,0.417l-0.416,0c-2.084,0 -3.75,0.417 -4.584,0.833Zm28.334,0.417c0.416,0.417 0.833,0.417 1.666,0.833c-0.833,-0.416 -1.25,-0.833 -1.666,-0.833Zm2.5,1.25c0.416,0.417 0.833,0.417 0.833,0.833c-0.417,0 -0.417,-0.416 -0.833,-0.833Zm33.333,21.25l-0,0Zm42.5,1.25l-0,0Zm1.25,0.417l-0,-0Zm-7.5,-12.084l-5.833,0l5.833,0c6.667,0 17.083,0 26.667,0.834c-9.584,-0.834 -20,-0.834 -26.667,-0.834Zm26.667,0.834c1.25,-0 2.5,0.416 3.75,0.416c-1.25,0 -2.5,0 -3.75,-0.416Zm3.75,0.416c1.25,0 2.5,0.417 3.333,0.417c-1.25,0 -2.5,0 -3.333,-0.417Zm3.333,0.834c1.25,0.416 2.083,0.416 2.917,0.833c-0.834,-0.417 -2.084,-0.833 -2.917,-0.833Zm2.917,0.833c0.833,0.417 2.083,0.417 2.916,0.833c-0.833,-0.416 -1.666,-0.833 -2.916,-0.833Zm140.416,-10.833l0,-0Zm0.417,-0l0.833,-0l-0.833,-0Zm1.25,-0l1.25,-0l-1.25,-0Zm1.667,-0l1.25,-0c-0.417,-0.417 -0.834,-0.417 -1.25,-0Zm2.5,-0.417l2.083,0l-2.083,0Zm2.916,0l1.667,0l-1.667,0Zm2.917,0l2.5,0l-2.5,0Zm4.167,0.417l2.083,-0l-2.083,-0Zm3.333,-0l2.5,-0l-2.5,-0Zm4.167,0.416c0.833,0 1.666,0 2.5,0.417c-1.25,-0.417 -1.667,-0.417 -2.5,-0.417Zm3.75,0.417c0.833,0 1.666,0 2.5,0.417c-0.834,-0.417 -1.667,-0.417 -2.5,-0.417Zm3.333,0.417l-0,-0Zm4.583,0.416c0.417,0 0.834,0 1.25,0.417c-0.416,0 -0.833,0 -1.25,-0.417Zm4.167,1.25c0.417,0 0.833,0.417 1.25,0.417c-0.417,-0.417 -0.833,-0.417 -1.25,-0.417Zm4.167,1.25c0.416,0 0.833,0.417 1.25,0.417c-0.417,0 -0.834,-0.417 -1.25,-0.417Zm129.583,4.167l-0,0Zm0.417,-0.417c0.416,0 0.416,0 -0,0Zm42.5,-11.25l2.083,0l-2.083,0Zm4.166,0l3.75,0l-3.75,0Zm4.584,0c1.25,0 2.5,0 3.333,0.417c-0.833,-0.417 -2.083,-0.417 -3.333,-0.417Zm4.583,0.417c1.25,0.417 2.5,0.417 3.75,0.833c-0.833,-0.416 -2.083,-0.833 -3.75,-0.833Zm110.833,7.083l0,0Zm0.834,-0.416l-0,-0Zm78.333,-4.167l0.833,0l-0.833,0Zm4.167,0l1.666,0l-1.666,0Zm4.166,0.417l2.084,-0l-2.084,-0Zm4.167,0.416c0.833,0 1.25,0 2.083,0.417c-0.416,-0.417 -1.25,-0.417 -2.083,-0.417Zm4.583,0.417c0.834,0 1.25,0 2.084,0.417c-0.834,-0.417 -1.667,-0.417 -2.084,-0.417Zm4.167,0.417c0.833,-0 1.25,0.416 2.083,0.416c-0.833,0 -1.666,0 -2.083,-0.416Zm3.75,0.833c0.833,0 1.25,0.417 2.083,0.417c-0.416,-0 -1.25,-0.417 -2.083,-0.417Zm3.75,0.833c0.833,0 1.667,0.417 2.083,0.417c-0.416,0 -1.25,-0.417 -2.083,-0.417Zm3.75,0.834c0.833,0.416 1.667,0.416 2.083,0.833c-0.416,-0.417 -1.25,-0.417 -2.083,-0.833Zm3.333,1.25c1.25,0.416 2.084,0.833 3.334,1.25c-1.25,-0.417 -2.084,-0.834 -3.334,-1.25Zm4.167,1.25l0.833,-0c-0.416,-0.417 -0.833,-0.417 -0.833,-0Zm2.5,-0.417c0.833,0 2.083,-0.417 3.75,-0.417c-1.667,0 -2.917,0 -3.75,0.417Zm-38.75,-147.5l30,2.083l19.167,1.25l-49.167,-3.333Zm50.833,145.833c-0.416,0 0,0 0,0Zm592.917,-75.833l-63.333,-0.833l63.333,0.833Zm-588.75,75.417c0.417,-0 0.417,-0.417 -0,-0c0.417,-0.417 0.417,-0 -0,-0Zm5.417,-0.834l-0,0Zm33.333,-2.916l-0,-0Zm38.75,-0.417l-0,0Zm3.75,0.417l0.417,-0l-0.417,-0Zm3.333,0.416l0.834,0l-0.834,0Zm3.334,0.417c0.416,0 0.833,0 1.25,0.417c-0.417,-0.417 -0.834,-0.417 -1.25,-0.417Zm3.333,0.417c0.417,-0 0.833,0.416 1.25,0.416c-0.417,0 -0.833,0 -1.25,-0.416Zm2.917,0.833c0.416,0 1.25,0.417 1.666,0.417c-0.416,-0 -1.25,-0 -1.666,-0.417Zm2.5,0.833c0.833,0.417 1.666,0.834 2.083,1.25c-0.417,-0.416 -1.25,-0.833 -2.083,-1.25Zm-23.334,-82.083l-15.833,-0.417l87.5,1.25l-71.667,-0.833Zm87.917,1.25l192.917,2.917l-192.917,-2.917Zm40,-74.167l100.417,5.417l53.75,2.917l-154.167,-8.334Zm184.167,10l-20.834,-1.25l20.834,1.25Zm-20,67.084l22.083,0.416l-22.083,-0.416Zm60.833,95.833l0.833,0l-0.833,0Zm1.25,0l0.417,0l-0.417,0Zm1.667,-0.417l0.416,0l-0.416,0Zm2.083,0l0.417,0l-0.417,0Zm2.083,0c0.417,0 0.417,0 0,0Zm-47.083,-162.083l49.583,2.917l-49.583,-2.917Zm50,162.083l-0,0Zm2.5,-0.416l0.417,-0l-0.417,-0Zm3.333,-0l0.417,-0l-0.417,-0Zm3.334,-0l0.416,-0l-0.416,-0Zm3.75,-0.417c0.416,0 0.416,0 -0,0Zm21.25,-0.417c0.416,0 -0,0 -0,0Zm22.5,0.417l1.25,0l-1.25,0Zm5.416,0l1.667,0l-1.667,0Zm5.417,0.417l2.083,-0l-2.083,-0Zm5.417,-0l2.083,-0l-2.083,-0Zm5.416,0.416l2.084,0l-2.084,0Zm5.417,0.417c0.833,0 1.667,0 2.5,0.417c-1.25,-0 -2.083,-0.417 -2.5,-0.417Zm5,0.417c0.833,-0 1.667,-0 2.083,0.416c-0.416,0 -1.25,0 -2.083,-0.416Zm5,0.833c0.833,0 1.25,0 2.083,0.417c-0.416,-0.417 -1.25,-0.417 -2.083,-0.417Zm5,0.833c0.833,0 1.25,0.417 2.083,0.417c-0.833,-0.417 -1.666,-0.417 -2.083,-0.417Zm4.583,0.417c0.834,0 1.25,0.417 2.084,0.417c-0.834,-0 -1.667,-0 -2.084,-0.417Zm4.584,1.25c0.416,0 1.25,0.417 1.666,0.417c-0.833,-0.417 -1.25,-0.417 -1.666,-0.417Zm4.166,0.833c0.417,0 0.834,0.417 1.25,0.417c-0.416,0 -0.833,0 -1.25,-0.417Zm-77.5,-69.166l258.334,2.916l150,1.667l-408.334,-4.583Zm420,5l59.167,0.833l-59.167,-0.833Zm70.834,0.833l67.083,0.833l-67.083,-0.833Zm82.5,0.833l122.083,1.667l-122.083,-1.667Z" style="fill:#39843f;fill-rule:nonzero;"/></g><path d="M2213.33,940.417l-69.166,9.583l155,8.75l-0,-12.917l-85.834,-5.416Z" style="fill:url(#_Linear2);fill-rule:nonzero;"/><path d="M2083.33,839.167l102.917,-0c11.667,-0 21.667,-9.584 21.667,-21.667c-0,-11.667 -9.584,-21.667 -21.667,-21.667l-102.917,0c-11.666,0 -21.666,9.584 -21.666,21.667c-0,11.667 9.583,21.667 21.666,21.667Z" style="fill:url(#_Linear3);fill-rule:nonzero;"/><path d="M2084.16,802.917l123.333,-0l-0,-7.084l-163.75,-3.75l-0,43.75l154.583,-17.5l-114.166,0l-0,-15.416Z" style="fill:url(#_Linear4);fill-rule:nonzero;"/><path d="M2211.66,855.833l-167.917,24.584l-0,38.333l169.583,-24.167l85.834,5.417c-0.417,-12.917 -0.417,-25.833 -0.834,-38.75l-86.666,-5.417Z" style="fill:#306c35;fill-rule:nonzero;"/><path d="M2299.16,915.417l-87.5,-5.417l-167.917,24.583l-0,10.417l100.417,5.417l68.75,-9.584l86.25,5.417l-0,12.917l0.833,-0c-0,-17.917 -0.417,-35.834 -0.833,-53.75l-0,10Z" style="fill:#306c35;fill-rule:nonzero;"/><path d="M2210.41,816.667l-166.667,19.166l-0,28.334l169.583,-24.167l84.584,5.417c-0.417,-7.5 -0.417,-15 -0.834,-22.5l-86.666,-6.25Z" style="fill:#306c35;fill-rule:nonzero;"/><path d="M2302.08,817.5l-81.25,-4.167l0,-29.166l-45.833,-2.084l-0,-308.333l-131.25,-8.333l-0,326.666l163.75,3.75l-0.833,21.25l3.75,-0.416l91.666,7.083l0,-6.25Z" style="fill:url(#_Linear5);fill-rule:nonzero;"/><path d="M2299.16,861.25l-0,-15.417l-85.834,-5.416l-169.583,24.166l-0,15.417l167.917,-24.167l87.5,5.417Z" style="fill:#7bc46c;fill-rule:nonzero;"/><g><rect x="2127.08" y="802.917" width="33.333" height="15.417" style="fill:#9dd08c;"/><rect x="2084.16" y="802.917" width="34.583" height="15.417" style="fill:#9dd08c;"/><path d="M2171.66,802.917l-0,15.416l26.666,0l8.334,-1.25l0.833,-14.166l-35.833,-0Z" style="fill:#9dd08c;fill-rule:nonzero;"/></g><path d="M2299.16,915.417l-0,-15.417l-85.834,-5.417l-169.583,24.167l-0,15.417l167.917,-24.167l87.5,5.417Z" style="fill:#7bc46c;fill-rule:nonzero;"/><path d="M2043.75,402.917l-200,-12.5l-1.25,0.416l-0,534.167l-25,5.833l-0,26.25l153.333,10.417l15.417,15.417l395,17.916l-0,-37.5l-337.5,-18.75l-0,-541.666Z" style="fill:url(#_Linear6);fill-rule:nonzero;"/><g><path d="M2102.08,523.75l0,25l42.917,1.25l-0,-23.333l-42.917,-2.917Z" style="fill:#08270a;fill-rule:nonzero;"/><path d="M2102.08,594.583l0,25l42.917,1.25l-0,-23.333l-42.917,-2.917Z" style="fill:#08270a;fill-rule:nonzero;"/><path d="M2102.08,668.333l0,25l42.917,1.25l-0,-23.75l-42.917,-2.5Z" style="fill:#08270a;fill-rule:nonzero;"/><path d="M2102.08,747.5l0,25l42.917,1.25l-0,-23.75l-42.917,-2.5Z" style="fill:#08270a;fill-rule:nonzero;"/></g><path d="M1416.66,784.167l60.416,-0l0,14.583l27.084,0l-0,58.333l-52.084,43.75l-39.583,0l4.167,-116.666Z" style="fill:#264f27;fill-rule:nonzero;"/><path d="M1842.5,925l-0,-534.167l-57.083,12.084l-0,64.583l-218.75,37.5l-0,25l-68.75,12.5l-0,297.917l-52.084,2.083l0,18.75l-10.416,0l-0,62.5l310.416,0l22.917,31.25l18.75,0l30,2.083l-0,-26.25l25,-5.833Z" style="fill:url(#_Linear7);fill-rule:nonzero;"/><g><g><path d="M1543.75,887.083l40.417,-2.083l-0,-14.167l-40.417,2.084l-0,14.166Z" style="fill:#42ad49;fill-rule:nonzero;"/><path d="M1682.5,865.833l-45.833,2.5l-0,14.584l45.833,-2.084l-0,-15Z" style="fill:#42ad49;fill-rule:nonzero;"/><path d="M1631.25,868.333l-41.667,2.084l0,14.583l41.667,-2.083l-0,-14.584Z" style="fill:#fff;fill-rule:nonzero;"/><path d="M1538.33,872.917l-40.416,2.083l-0,14.167l40.416,-2.084l0,-14.166Z" style="fill:#9dd08c;fill-rule:nonzero;"/><path d="M1735.41,863.333l-0,15l41.666,-1.666l0,-15.417l-41.666,2.083Z" style="fill:#bfdd9a;fill-rule:nonzero;"/><path d="M1730,863.75l-41.667,1.667l0,15l41.667,-1.667l-0,-15Z" style="fill:#fff;fill-rule:nonzero;"/></g><g><path d="M1543.75,927.917l40.417,-0.834l-0,-14.166l-40.417,1.25l-0,13.75Z" style="fill:#42ad49;fill-rule:nonzero;"/><path d="M1682.5,910l-45.833,1.25l-0,14.583l45.833,-1.25l-0,-14.583Z" style="fill:#9dd08c;fill-rule:nonzero;"/><path d="M1631.25,911.25l-41.667,1.25l0,14.583l41.667,-1.25l-0,-14.583Z" style="fill:#39843f;fill-rule:nonzero;"/><path d="M1538.33,914.167l-40.416,1.25l-0,13.75l40.416,-0.834l0,-14.166Z" style="fill:#39843f;fill-rule:nonzero;"/><path d="M1735.41,908.333l-0,15l41.666,-1.25l0,-15l-41.666,1.25Z" style="fill:#39843f;fill-rule:nonzero;"/><path d="M1730,908.333l-41.667,1.25l0,15l41.667,-1.25l-0,-15Z" style="fill:#42ad49;fill-rule:nonzero;"/></g><path d="M1586.66,543.333l-37.5,5.834l-0,40.833l37.5,-5l-0,-41.667Z" style="fill:#9dd08c;fill-rule:nonzero;"/><path d="M1586.66,653.75l-0,-43.75l-37.5,4.583l-0,42.917l37.5,-3.75Z" style="fill:#9dd08c;fill-rule:nonzero;"/><path d="M1549.16,682.083l-0,47.917l37.5,-3.333l-0,-48.334l-37.5,3.75Z" style="fill:#42ad49;fill-rule:nonzero;"/><path d="M1634.16,649.583l-0,-45.416l-39.167,4.583l-0,44.167l39.167,-3.334Z" style="fill:#64bd56;fill-rule:nonzero;"/><path d="M1634.16,536.25l-39.167,5.833l-0,42.084l39.167,-5l-0,-42.917Z" style="fill:#fff;fill-rule:nonzero;"/><path d="M1595,677.5l-0,48.333l39.167,-3.333l-0,-48.75l-39.167,3.75Z" style="fill:#42ad49;fill-rule:nonzero;"/><path d="M1642.5,672.917l-0,48.75l44.167,-4.167l-0,-48.75l-44.167,4.167Z" style="fill:#fff;fill-rule:nonzero;"/><path d="M1642.5,745.417l-0,45.833l44.167,-2.083l-0,-47.5l-44.167,3.75Z" style="fill:#64bd56;fill-rule:nonzero;"/><path d="M1686.66,644.583l-0,-47.083l-44.167,5.417l-0,45.833l44.167,-4.167Z" style="fill:#9dd08c;fill-rule:nonzero;"/><path d="M1686.66,527.917l-44.167,6.666l-0,43.75l44.167,-5.833l-0,-44.583Z" style="fill:#9dd08c;fill-rule:nonzero;"/><path d="M1695,740.833l-0,47.917l37.5,-2.083l-0,-49.167l-37.5,3.333Z" style="fill:#39843f;fill-rule:nonzero;"/><path d="M1695,667.917l-0,48.75l37.5,-3.334l-0,-49.166l-37.5,3.75Z" style="fill:#39843f;fill-rule:nonzero;"/><path d="M1732.5,520.833l-37.5,5.834l-0,45l37.5,-4.584l-0,-46.25Z" style="fill:#64bd56;fill-rule:nonzero;"/><path d="M1732.5,640l-0,-48.333l-37.5,4.583l-0,47.5l37.5,-3.75Z" style="fill:#42ad49;fill-rule:nonzero;"/><path d="M1784.16,512.5l-43.334,6.667l0,46.666l43.334,-5.416l-0,-47.917Z" style="fill:#64bd56;fill-rule:nonzero;"/><path d="M1740.83,737.083l0,49.167l43.334,-2.5l-0,-50.417l-43.334,3.75Z" style="fill:#9dd08c;fill-rule:nonzero;"/><path d="M1740.83,712.5l43.334,-3.75l-0,-49.583l-43.334,4.166l0,49.167Z" style="fill:#64bd56;fill-rule:nonzero;"/><path d="M1740.83,639.583l43.334,-4.166l-0,-50l-43.334,5.416l0,48.75Z" style="fill:#9dd08c;fill-rule:nonzero;"/><path d="M1540.83,682.917l-31.666,2.916l-0,47.917l31.666,-2.917l0,-47.916Z" style="fill:#42ad49;fill-rule:nonzero;"/><path d="M1540.83,550.833l-31.666,5l-0,39.167l31.666,-4.167l0,-40Z" style="fill:#64bd56;fill-rule:nonzero;"/><path d="M1540.83,615.417l-31.666,4.166l-0,41.667l31.666,-2.917l0,-42.916Z" style="fill:#9dd08c;fill-rule:nonzero;"/><path d="M1586.66,794.583l-0,-44.583l-37.5,3.333l-0,42.917l37.5,-1.667Z" style="fill:#9dd08c;fill-rule:nonzero;"/><path d="M1549.16,838.333l37.5,-1.666l-0,-28.334l-37.5,2.084l-0,27.916Z" style="fill:#42ad49;fill-rule:nonzero;"/><path d="M1634.16,792.083l-0,-46.25l-39.167,3.334l-0,45l39.167,-2.084Z" style="fill:#9dd08c;fill-rule:nonzero;"/><path d="M1595,836.25l39.167,-1.667l-0,-28.75l-39.167,2.084l-0,28.333Z" style="fill:#fff;fill-rule:nonzero;"/><path d="M1642.5,834.167l44.167,-2.084l-0,-29.166l-44.167,2.5l-0,28.75Z" style="fill:#42ad49;fill-rule:nonzero;"/><path d="M1695,832.083l37.5,-2.083l-0,-29.583l-37.5,2.083l-0,29.583Z" style="fill:#9dd08c;fill-rule:nonzero;"/><path d="M1740.83,830l43.334,-2.083l-0,-30.417l-43.334,2.5l0,30Z" style="fill:#42ad49;fill-rule:nonzero;"/><path d="M1540.83,753.75l-31.666,2.917l-0,41.666l31.666,-1.666l0,-42.917Z" style="fill:#64bd56;fill-rule:nonzero;"/><path d="M1509.16,840.417l31.666,-1.667l0,-27.917l-31.666,1.667l-0,27.917Z" style="fill:#39843f;fill-rule:nonzero;"/></g><path d="M1759.16,747.917l41.666,-0.834c-14.166,-15 -32.083,-15.833 -47.083,-12.5l22.083,-32.083c-16.25,2.083 -26.666,11.667 -33.333,22.917c-2.5,-23.75 -20.833,-44.584 -20.833,-44.584l5.416,41.25c-18.333,-18.75 -50,-21.25 -50,-21.25l35.834,27.917c-23.75,-3.333 -48.334,10 -48.334,10l54.167,5.417c-27.5,10.833 -38.333,48.333 -38.333,48.333l37.083,-31.25c-17.083,22.917 -9.167,58.75 -9.167,58.75l22.5,-57.5c-0.416,2.917 -0.416,5 -0.416,5l1.25,-2.083l-2.917,337.916l17.5,0l-5.833,-335l15.416,44.584c11.667,-21.25 2.917,-41.25 -7.5,-55.417l36.667,24.167c-2.083,-17.084 -13.333,-27.5 -25.833,-33.75Z" style="fill-rule:nonzero;"/><path d="M1974.58,715.417l-41.666,-0.834c14.166,-15 32.083,-15.833 47.083,-12.5l-22.083,-32.083c16.25,2.083 26.666,11.667 33.333,22.917c2.5,-23.75 20.833,-44.584 20.833,-44.584l-5.416,41.25c18.333,-18.75 50,-21.25 50,-21.25l-35.834,27.917c23.75,-3.333 48.334,10 48.334,10l-54.167,5.417c27.5,10.833 38.333,48.333 38.333,48.333l-37.083,-31.25c17.083,22.917 9.167,58.75 9.167,58.75l-22.5,-57.5c0.416,2.917 0.416,5 0.416,5l-1.25,-2.083l2.917,337.916l-17.5,0l5.833,-335l-15.416,44.584c-11.667,-21.25 -2.917,-41.25 7.5,-55.417l-36.667,24.167c2.083,-17.084 13.333,-27.5 25.833,-33.75Z" style="fill-rule:nonzero;"/><path d="M2182.5,890l-37.917,-0.417c12.917,-13.75 29.167,-14.583 42.917,-11.25l-20,-29.166c15,2.083 24.583,10.833 30.417,20.833c2.083,-21.667 18.75,-40.417 18.75,-40.417l-5,37.5c16.666,-17.083 45.416,-19.166 45.416,-19.166l-32.5,25.416c21.667,-2.916 44.167,9.167 44.167,9.167l-49.167,5c25,10 34.584,43.75 34.584,43.75l-33.75,-28.333c15.833,20.833 8.333,53.333 8.333,53.333l-20.417,-52.5c0.417,2.917 0.417,4.583 0.417,4.583l-1.25,-1.666l2.5,307.916l-15.833,0l5.416,-305l-14.166,40.417c-10.417,-19.167 -2.5,-37.5 6.666,-50.417l-33.333,21.667c2.083,-16.25 12.5,-25.833 23.75,-31.25Z" style="fill-rule:nonzero;"/><clipPath id="_clip8"><rect x="-2559.17" y="0" width="5833.33" height="1916.67"/></clipPath><g clip-path="url(#_clip8)"><rect x="-2563.34" y="1041.67" width="5845.83" height="966.667" style="fill:#fff;"/></g><clipPath id="_clip9"><rect x="-2559.17" y="0" width="5833.33" height="1916.67"/></clipPath><g clip-path="url(#_clip9)"><path d="M3150,1309.17c-120.833,-6.25 -206.25,-10.417 -364.583,-18.75c-158.334,-8.334 -272.917,-22.917 -414.584,-27.084c-141.666,-4.166 -160.416,-8.333 -304.166,-12.5c-143.75,-4.166 -97.917,-4.166 -237.5,-10.416c-139.584,-6.25 -150,-12.5 -270.834,-14.584c-120.833,-2.083 -110.416,-12.5 -237.5,-12.5c-127.083,0 -95.833,-8.333 -241.666,-8.333c-145.834,0 -150,-14.583 -243.75,-12.5c-93.75,2.083 -93.75,-4.167 -156.25,-6.25c-62.5,-2.083 -139.584,0 -195.834,0c-56.25,0 -135.416,-4.167 -191.666,-4.167c-56.25,0 -75,-4.166 -114.584,-6.25c-39.583,-2.083 -70.833,-4.166 -93.75,-4.166c-22.916,-0 -87.5,-2.084 -118.75,-2.084c-31.25,0 -43.75,-10.416 -43.75,-10.416l-70.833,-0c-37.5,-0 -58.333,-2.084 -58.333,-2.084l-104.167,0c-33.333,0 -45.833,-6.25 -45.833,-6.25l-110.417,0c-39.583,0 -62.5,-8.333 -62.5,-8.333l-191.667,0c-56.25,0 -79.166,-6.25 -79.166,-6.25l-458.334,0c-31.25,0 -45.833,-14.583 -45.833,-14.583l-654.167,-0c-25,-0 -27.083,-6.25 -27.083,-6.25l-181.25,-0c-33.333,-0 -27.083,-16.667 -27.083,-16.667l-106.25,0c-14.584,0 -14.584,-12.5 -14.584,-12.5l-253.333,0l-0,48.333c0.417,166.667 -5,718.334 -6.667,899.584l5920.42,-0l-0,-722.917c-18.333,1.667 -32.083,2.5 -43.75,3.333c-51.25,3.334 -51.25,-0.416 -150,-5.416Z" style="fill:#264f27;fill-rule:nonzero;"/></g><g><clipPath id="_clip10"><rect x="-2559.17" y="0" width="5833.33" height="1916.67"/></clipPath><g clip-path="url(#_clip10)"><path d="M3301.97,1352.87l8.863,10.878l-9.166,11.25l9.166,11.25l-9.166,11.25l9.166,11.25l-9.166,11.25l9.166,11.667l-9.166,11.25l9.166,11.25l-9.166,11.25l9.166,11.25l-9.166,11.25l9.166,11.25l-9.166,11.25l9.166,11.25l-9.166,11.25l9.166,11.25l-9.166,11.25l9.166,11.666l-9.166,11.25l9.166,11.25l-9.166,11.25l9.166,11.25l-9.166,11.25l9.166,11.25l-9.166,11.25l9.166,11.25l-9.166,11.25l9.166,11.667l-9.166,11.25l9.166,11.25l-9.166,11.25l9.166,11.25l-9.166,11.25l9.166,11.25l-9.166,11.25l9.166,11.25l-9.166,11.667l9.166,11.25l-9.166,11.25l9.166,11.25l-9.166,11.25l9.166,11.25l-9.166,11.25l9.166,11.25l-9.166,11.25l9.166,11.666l-9.166,11.25l9.166,11.25l-9.166,11.25l9.166,11.25l-9.166,11.25l9.166,11.25l-9.166,11.667l5,15.833l-106.667,-9.166l-106.25,9.166l-106.667,-9.166l-106.25,9.166l-106.25,-9.166l-106.25,9.166l-106.25,-9.166l-106.25,9.166l-106.666,-9.166l-106.25,9.166l-106.25,-9.166l-106.25,9.166l-106.25,-9.166l-106.25,9.166l-106.667,-9.166l-106.25,9.166l-106.25,-9.166l-106.25,9.166l-106.25,-9.166l-106.25,9.166l-106.667,-9.166l-106.25,9.166l-106.25,-9.166l-106.25,9.166l-106.25,-9.166l-106.25,9.166l-106.666,-9.166l-106.25,9.166l-106.25,-9.166l-106.25,9.166l-106.25,-9.166l-106.25,9.166l-106.25,-9.166l-106.667,9.166l-106.25,-9.166l-106.25,9.166l-106.25,-9.166l-106.25,9.166l-106.667,-9.166l-106.25,9.166l-106.25,-9.166l-106.25,9.166l-106.25,-9.166l-106.666,9.166l-106.25,-9.166l-106.25,9.166l-106.25,-9.166l-106.25,9.166l-106.25,-9.166l-106.667,9.166l-106.25,-9.166l-106.25,9.166l-106.25,-9.166l-106.667,9.166l-106.25,-9.166l-107.083,9.166l5.417,-18.75l-9.167,-14.166l9.167,-14.167l-9.167,-14.167l9.167,-14.166l-9.167,-14.167l9.167,-14.583l-9.167,-14.167l9.167,-14.167l-9.167,-14.166l9.167,-14.167l-9.167,-14.167l9.167,-14.166l-9.167,-14.167l9.167,-14.167l-9.167,-14.166l9.167,-14.167l-9.167,-14.167l9.167,-14.583l-9.167,-14.167l9.167,-14.166l-9.167,-14.167l9.167,-14.167l-9.167,-14.166l9.167,-14.167l-9.167,-14.167l9.167,-14.166l-9.167,-14.167l9.167,-14.583l-9.167,-14.167l9.167,-14.167l-9.167,-14.166l9.167,-14.167l-9.167,-14.167l9.167,-14.166l-9.167,-14.167l9.167,-14.167l-9.167,-14.583l9.167,-14.167l-9.167,-14.166l9.167,-14.167l-9.167,-14.167l9.167,-14.166l-9.167,-14.167l9.167,-14.167l-9.167,-14.583l9.167,-14.167l-9.167,-14.166l9.167,-14.167l-9.167,-14.167l9.167,-14.166l-9.167,-14.167l9.167,-14.583l-9.167,-14.167l9.167,-14.167l-5,-18.75l76.667,8.685l0.491,-18.006l5873.92,160.33l-0.343,12.573l4.261,-0.248l-4.657,14.746l-0.04,1.459Z" style="fill:#306c35;"/></g></g><g><clipPath id="_clip11"><rect x="-2559.17" y="0" width="5833.33" height="1916.67"/></clipPath><g clip-path="url(#_clip11)"><path d="M3302.04,1507.08l8.37,9.167l-8.75,9.583l8.75,10l-8.75,9.584l8.75,10l-8.75,9.583l8.75,9.583l-8.75,10l8.75,9.584l-8.75,10l8.75,9.583l-8.75,9.583l8.75,10l-8.75,9.584l8.75,10l-8.75,9.583l8.75,9.583l-8.75,10l8.75,9.584l-8.75,10l8.75,9.583l-8.75,10l8.75,9.583l-8.75,9.584l8.75,10l-8.75,9.583l8.75,10l-8.75,9.583l8.75,9.584l-8.75,10l8.75,9.583l-8.75,10l8.75,9.583l-8.75,9.584l8.75,10l-8.75,9.583l8.75,10l-8.75,9.583l8.75,10l-8.75,9.584l8.75,9.583l-8.75,10l8.75,9.583l-8.75,10l8.75,9.584l-8.75,10l8.75,9.583l-8.75,9.583l8.75,10l-8.75,9.584l8.75,10l-8.75,10l5,13.75l-106.667,-8.75l-106.25,8.75l-106.667,-8.75l-106.25,8.75l-106.25,-8.75l-106.25,8.75l-106.25,-8.75l-106.25,8.75l-106.666,-8.75l-106.25,8.75l-106.25,-8.75l-106.25,8.75l-106.25,-8.75l-106.25,8.75l-106.667,-8.75l-106.25,8.75l-106.25,-8.75l-106.25,8.75l-106.25,-8.75l-106.25,8.75l-106.667,-8.75l-106.25,8.75l-106.25,-8.75l-106.25,8.75l-106.25,-8.75l-106.25,8.75l-106.666,-8.75l-106.25,8.75l-106.25,-8.75l-106.25,8.75l-106.25,-8.75l-106.25,8.75l-106.25,-8.75l-106.667,8.75l-106.25,-8.75l-106.25,8.75l-106.25,-8.75l-106.25,8.75l-106.667,-8.75l-106.25,8.75l-106.25,-8.75l-106.25,8.75l-106.25,-8.75l-106.666,8.75l-106.25,-8.75l-106.25,8.75l-106.25,-8.75l-106.25,8.75l-106.25,-8.75l-106.667,8.75l-106.25,-8.75l-106.25,8.75l-106.25,-8.75l-106.667,8.75l-106.25,-8.75l-106.666,8.75l4.583,-16.667l-8.75,-12.083l8.75,-12.084l-8.75,-12.5l8.75,-12.083l-8.75,-12.5l8.75,-12.083l-8.75,-12.5l8.75,-12.084l-8.75,-12.083l8.75,-12.5l-8.75,-12.083l8.75,-12.5l-8.75,-12.084l8.75,-12.5l-8.75,-12.083l8.75,-12.5l-8.75,-12.083l8.75,-12.084l-8.75,-12.5l8.75,-12.083l-8.75,-12.5l8.75,-12.083l-8.75,-12.5l8.75,-12.084l-8.75,-12.5l8.75,-12.083l-8.75,-12.5l8.75,-12.083l-8.75,-12.084l8.75,-12.5l-8.75,-12.083l8.75,-12.5l-8.75,-12.083l8.75,-12.5l-8.75,-12.084l8.75,-12.5l-8.75,-12.083l8.75,-12.5l-8.75,-12.083l8.75,-12.5l-8.75,-12.084l8.75,-12.5l-8.75,-12.083l8.75,-12.083l-8.75,-12.5l8.75,-12.084l-8.75,-12.5l8.75,-12.083l-8.75,-12.5l8.75,-12.083l-8.75,-12.5l8.75,-12.084l-8.75,-12.5l8.75,-12.5l-4.583,-16.666l68.772,7.253l0.268,-12.102l5882.45,130.27l-0.356,16.054l3.869,-0.225l-4.122,11.679l-0.075,3.367l7.947,8.704l-8.351,9.543l-0.019,0.873Z" style="fill:#39843f;"/></g></g><g><clipPath id="_clip12"><rect x="-2559.17" y="0" width="5833.33" height="1916.67"/></clipPath><g clip-path="url(#_clip12)"><path d="M3283.98,1588.76l22.682,-1.677l-5,12.917l9.166,8.333l-9.166,8.334l9.166,8.333l-9.166,8.333l9.166,7.917l-9.166,8.333l9.166,8.334l-9.166,8.333l9.166,8.333l-9.166,8.334l9.166,8.333l-9.166,8.333l9.166,8.334l-9.166,8.333l9.166,8.333l-9.166,8.334l9.166,8.333l-9.166,8.333l9.166,7.917l-9.166,8.333l9.166,8.334l-9.166,8.333l9.166,8.333l-9.166,8.334l9.166,8.333l-9.166,8.333l9.166,8.334l-9.166,8.333l9.166,8.333l-9.166,8.334l9.166,8.333l-9.166,8.333l9.166,8.334l-9.166,7.916l9.166,8.334l-9.166,8.333l9.166,8.333l-9.166,8.334l9.166,8.333l-9.166,8.333l9.166,8.334l-9.166,8.333l9.166,8.333l-9.166,8.334l9.166,8.333l-9.166,8.333l9.166,8.334l-9.166,8.333l9.166,8.333l-9.166,8.334l9.166,8.333l-9.166,8.333l9.166,8.334l-9.166,8.333l5,12.917l-106.667,-9.167l-106.25,9.167l-106.667,-9.167l-106.25,9.167l-106.25,-9.167l-106.25,9.167l-106.25,-9.167l-106.25,9.167l-106.666,-9.167l-106.25,9.167l-106.25,-9.167l-106.25,9.167l-106.25,-9.167l-106.25,9.167l-106.667,-9.167l-106.25,9.167l-106.25,-9.167l-106.25,9.167l-106.25,-9.167l-106.25,9.167l-106.667,-9.167l-106.25,9.167l-106.25,-9.167l-106.25,9.167l-106.25,-9.167l-106.25,9.167l-106.666,-9.167l-106.25,9.167l-106.25,-9.167l-106.25,9.167l-106.25,-9.167l-106.25,9.167l-106.25,-9.167l-106.667,9.167l-106.25,-9.167l-106.25,9.167l-106.25,-9.167l-106.25,9.167l-106.667,-9.167l-106.25,9.167l-106.25,-9.167l-106.25,9.167l-106.25,-9.167l-106.666,9.167l-106.25,-9.167l-106.25,9.167l-106.25,-9.167l-106.25,9.167l-106.25,-9.167l-106.667,9.167l-106.25,-9.167l-106.25,9.167l-106.25,-9.167l-106.667,9.167l-106.25,-9.167l-106.666,9.167l5,-14.584l-9.167,-9.583l9.167,-10l-9.167,-9.583l9.167,-10l-9.167,-9.584l9.167,-10l-9.167,-9.583l9.167,-10l-9.167,-10l9.167,-9.583l-9.167,-10l9.167,-9.584l-9.167,-10l9.167,-9.583l-9.167,-10l9.167,-9.583l-9.167,-10l9.167,-10l-9.167,-9.584l9.167,-10l-9.167,-9.583l9.167,-10l-9.167,-9.583l9.167,-10l-9.167,-9.584l9.167,-10l-9.167,-10l9.167,-9.583l-9.167,-10l9.167,-9.583l-9.167,-10l9.167,-10l-9.167,-9.584l9.167,-10l-9.167,-9.583l9.167,-10l-9.167,-9.583l9.167,-10l-9.167,-9.584l9.167,-10l-9.167,-10l9.167,-9.583l-9.167,-10l9.167,-9.583l-9.167,-10l9.167,-10l-9.167,-9.584l9.167,-10l-9.167,-9.583l9.167,-10l-9.167,-10l9.167,-9.583l-9.167,-10l9.167,-9.584l-5,-14.583l89.993,9.14l0.246,-16.197l5842.15,88.57l-0.072,4.747Z" style="fill:#42ad49;"/></g></g><path d="M-141.671,388.333l0,14.584l12.5,4.166l0,43.75l-12.5,0l0,531.25l-37.083,0c0.833,16.25 2.083,32.084 3.75,47.917l4.167,0l-0,-20.833l62.5,-0l9.166,9.166l17.5,0l0,-17.5l154.167,0l-0,-38.333l15.417,0l-0,-586.667l-229.584,12.5Z" style="fill:#39843f;fill-rule:nonzero;"/><path d="M1834.16,970.417l-0.834,-0c-0.833,-3.334 0.417,-7.084 1.667,-10.417c2.5,-5 7.5,-6.667 12.917,-7.083c1.666,-0.417 3.333,-0.417 4.583,-0c0.833,0.416 1.25,0.833 2.083,0.833c1.25,-0.417 0.834,-2.083 1.25,-2.917c2.084,-2.916 5.834,-2.916 7.084,0.834c-0,-2.917 -0.834,-4.167 2.5,-5.417c2.916,-1.25 7.083,-0.833 8.75,2.083c-0.834,-2.5 3.75,-7.083 6.25,-7.083c4.583,0 7.5,5.833 12.083,6.25c-0,-0.833 -0,-2.083 0.417,-2.917c0.833,-2.083 4.583,-3.333 6.25,-3.333c2.5,0 8.75,0.833 10.416,2.917c2.084,-2.917 5.417,-0.834 7.5,0.833c-0.833,-0.417 -0.833,-0.833 -1.25,-1.667c4.167,-1.25 10,0 14.584,0l4.583,0c3.75,0 4.583,0.417 7.5,2.917c1.25,-6.25 7.5,-9.167 12.917,-11.25c5.416,-2.083 10.416,-3.333 16.25,-2.5c4.583,0.417 6.25,0.833 8.75,4.583c-0,-0.833 -0,-2.083 0.416,-2.916c1.25,-2.084 6.25,-2.917 7.917,-2.917c4.167,-0.417 12.083,0.833 13.75,5.833c-0,-0.416 -0.417,-0.833 -0,-1.666c4.583,-1.25 12.083,-0 12.5,5.833c1.25,-2.5 4.583,0.417 5,2.083c1.25,-1.666 7.083,-0.833 9.167,-0.416c4.166,0.416 9.166,2.916 11.666,6.25c1.25,1.666 2.084,3.75 3.334,5.833c1.25,2.5 3.75,5.417 4.166,8.75c0.417,2.083 -0.416,8.75 -3.75,7.5c4.167,0 6.667,1.25 5.834,5.833c1.666,-2.5 3.333,2.917 3.333,3.75c3.333,-2.083 5.417,5 2.917,6.25c2.083,-0.833 5.416,1.25 6.25,3.334c1.666,3.333 -0.834,6.666 -3.75,7.916c-4.167,-2.083 0.833,-6.666 4.583,-5.416c2.083,0.833 4.167,2.5 3.75,5c-0.417,1.666 -1.25,2.916 -2.917,2.916c1.667,-0.833 2.917,1.25 2.5,2.917c0,1.667 -5,4.583 -6.25,2.917c-9.166,4.583 -18.333,7.5 -28.75,8.75c-7.916,1.666 -15.416,1.666 -23.333,-0c-2.083,-0.834 -2.917,-2.084 -2.083,-4.167c-0.834,-1.667 -2.5,-2.083 -5,-1.25c-7.084,0.417 -14.167,1.25 -21.25,2.5c-8.75,1.667 -17.084,0.833 -25,-2.5c-2.917,-1.25 -4.584,-3.333 -4.584,-6.25c0,-1.25 -0.416,-2.5 -1.666,-3.333c-5.834,-0.834 -11.667,-1.25 -17.5,-0.417c-9.167,0.833 -18.334,0.833 -27.5,0.833c-6.667,0.417 -12.5,-1.25 -17.5,-5c-0.834,-2.083 -2.084,-4.166 -3.75,-5.416c-5.417,-2.5 -10.834,-4.167 -17.084,-5c-11.666,-2.5 -23.333,-4.167 -35,-5.417c-5.416,0 -10.833,-1.25 -15.833,-2.917" style="fill:#264f27;fill-rule:nonzero;"/><path d="M338.329,929.583l0,-17.083l-25,0l0,16.667l-41.666,-1.25l13.75,100l83.333,-0l-0,-97.084l-30.417,-1.25Z" style="fill:url(#_Linear13);fill-rule:nonzero;"/><path d="M1043.75,92.5l-289.583,102.083l-0,650l158.333,6.25l-0,191.667l35.417,0l-0,-20.833l66.666,2.083l0,14.583l32.084,0l-0.417,-945.833l-2.5,-0Z" style="fill:url(#_Linear14);fill-rule:nonzero;"/><g><path d="M820.829,213.75l0,797.5l20.834,0l-0,-804.583l-20.834,7.083Z" style="fill:url(#_Linear15);fill-rule:nonzero;stroke:#306c35;stroke-width:4.17px;"/><path d="M841.663,206.667l-0,804.583l16.666,0l0,-810l-16.666,5.417Z" style="fill:url(#_Linear16);fill-rule:nonzero;stroke:#306c35;stroke-width:4.17px;"/><path d="M804.163,219.583l-0,791.667l16.666,0l0,-797.5l-16.666,5.833Z" style="fill:url(#_Linear17);fill-rule:nonzero;stroke:#306c35;stroke-width:4.17px;"/><path d="M782.079,226.667l0,784.166l21.667,0l-0,-791.666l-21.667,7.5Z" style="fill:url(#_Linear18);fill-rule:nonzero;stroke:#306c35;stroke-width:4.17px;"/><path d="M858.329,201.25l0,810l16.667,0l-0,-815.833l-16.667,5.833Z" style="fill:url(#_Linear19);fill-rule:nonzero;stroke:#306c35;stroke-width:4.17px;"/><path d="M912.496,182.917l-0,828.333l20.833,0l0,-835.417l-20.833,7.084Z" style="fill:url(#_Linear20);fill-rule:nonzero;stroke:#306c35;stroke-width:4.17px;"/><path d="M874.996,195.417l-0,815.833l20.833,0l0,-822.917l-20.833,7.084Z" style="fill:url(#_Linear21);fill-rule:nonzero;stroke:#306c35;stroke-width:4.17px;"/><path d="M1000.83,152.917l-25.833,8.75l-0,849.583c16.25,0 26.667,0 25.833,0c-2.916,0 0,-858.333 0,-858.333Z" style="fill:url(#_Linear22);fill-rule:nonzero;stroke:#306c35;stroke-width:4.17px;"/><path d="M954.163,168.75l-0,842.5l20.833,0l-0,-849.583l-20.833,7.083Z" style="fill:url(#_Linear23);fill-rule:nonzero;stroke:#306c35;stroke-width:4.17px;"/><path d="M895.829,188.333l0,822.917l16.667,0l-0,-828.333l-16.667,5.416Z" style="fill:url(#_Linear24);fill-rule:nonzero;stroke:#306c35;stroke-width:4.17px;"/><path d="M933.329,175.833l0,835.417l20.834,0l-0,-842.5l-20.834,7.083Z" style="fill:url(#_Linear25);fill-rule:nonzero;stroke:#306c35;stroke-width:4.17px;"/><path d="M782.079,388.333l218.75,-56.25" style="fill:none;fill-rule:nonzero;stroke:#306c35;stroke-width:4.17px;"/><path d="M782.079,459.167l218.75,-47.917" style="fill:none;fill-rule:nonzero;stroke:#306c35;stroke-width:4.17px;"/><path d="M782.079,534.167l218.75,-43.75" style="fill:none;fill-rule:nonzero;stroke:#306c35;stroke-width:4.17px;"/><path d="M782.079,602.917l218.75,-31.25" style="fill:none;fill-rule:nonzero;stroke:#306c35;stroke-width:4.17px;"/><path d="M782.079,675.833l218.75,-27.083" style="fill:none;fill-rule:nonzero;stroke:#306c35;stroke-width:4.17px;"/><path d="M782.079,751.667l218.75,-22.917" style="fill:none;fill-rule:nonzero;stroke:#306c35;stroke-width:4.17px;"/><path d="M782.079,821.667l218.75,-14.584" style="fill:none;fill-rule:nonzero;stroke:#306c35;stroke-width:4.17px;"/><path d="M782.079,893.333l218.75,-6.25" style="fill:none;fill-rule:nonzero;stroke:#306c35;stroke-width:4.17px;"/><path d="M782.079,316.25l218.75,-64.583" style="fill:none;fill-rule:nonzero;stroke:#306c35;stroke-width:4.17px;"/></g><path d="M640.829,827.917l-5.416,-8.334l-180.417,-4.166l-0,37.916l185.833,2.5l0,-27.916Z" style="fill:#64bd56;fill-rule:nonzero;"/><path d="M453.329,815.417l-30.416,11.25l-0,26.25l32.083,0.416l-0,-37.916l-1.667,-0Z" style="fill:#42ad49;fill-rule:nonzero;"/><clipPath id="_clip26"><rect x="-2559.17" y="0" width="5833.33" height="1916.67"/></clipPath><g clip-path="url(#_clip26)"><path d="M1125,1102.92c-0,-0 35.417,-2.084 56.25,2.083c-0,0 35.417,-2.083 47.917,4.167c-0,-0 35.416,-4.167 56.25,4.166c-0,0 41.666,-8.333 72.916,0c0,0 83.334,-2.083 114.584,4.167c-0,0 43.75,-4.167 68.75,0c-0,0 43.75,-4.167 64.583,2.083c20.833,6.25 154.167,4.167 229.167,6.25c75,2.084 1160.42,45.834 1160.42,45.834l56.25,-0c23.75,-0 199.167,3.333 239.584,4.166l-0,-20l-60.417,-4.583c-0,0 -50,6.25 -81.25,0c-31.25,-6.25 -127.083,6.25 -127.083,6.25l-154.167,-12.5c-0,0 -100,-2.083 -114.583,-6.25c-14.584,-4.167 -68.75,-2.083 -87.5,-2.083c-18.75,-0 -81.25,-12.5 -81.25,-12.5l-27.084,2.083c-22.916,-10.417 -95.833,4.167 -95.833,4.167c-20.833,-16.667 -66.667,-6.25 -66.667,-6.25c-35.416,-12.5 -127.083,-6.25 -127.083,-6.25c-16.667,-8.334 -70.833,-4.167 -70.833,-4.167l-14.584,-4.167c-29.166,-10.416 -79.166,2.084 -79.166,2.084l-20.834,-8.334c-27.083,-8.333 -127.083,2.084 -127.083,2.084l-14.583,-4.167c-22.917,-12.5 -118.75,2.083 -118.75,2.083c-33.334,-14.583 -118.75,-2.083 -118.75,-2.083c-22.917,-12.5 -56.25,-2.083 -56.25,-2.083c-10.417,-10.417 -50,-4.167 -50,-4.167c-22.917,-6.25 -60.417,10.417 -60.417,10.417l-70.833,-4.167c-18.75,-8.333 -54.167,2.083 -54.167,2.083c-14.583,-8.333 -47.917,-6.25 -47.917,-6.25c-16.666,-6.25 -47.916,4.167 -47.916,4.167l-95.834,-4.167c-22.916,-4.166 -64.583,0 -64.583,0c-10.417,-6.25 -35.417,0 -35.417,0c-2.083,-2.5 -5,-4.166 -7.916,-5.416c3.333,2.083 8.333,6.25 12.083,11.25Z" style="fill:#264f27;fill-rule:nonzero;stroke:#264f27;stroke-width:4.17px;"/></g><path d="M1052.08,1088.33l0,-50l-37.5,0l0,-14.583l-66.666,-2.083l-0,20.833l-35.417,-0l-0,-191.667l-158.333,-6.25l-260.417,-6.25l-0,184.584c4.583,2.083 8.75,5 12.5,9.166c-0,0 50,-20.833 79.167,4.167c-0,0 27.083,-4.167 29.166,10.417c0,-0 22.917,-33.334 56.25,-22.917c0,0 43.75,-14.583 52.084,22.917c-0,-0 41.666,-2.084 52.083,29.166c-0,0 35.417,-27.083 70.833,-4.166c0,-0 12.5,-6.25 27.084,-2.084c-0,0 4.166,-18.75 33.333,-16.666c29.167,2.083 31.25,16.666 31.25,16.666c-0,0 35.417,-2.083 43.75,14.584c-0,-0 27.083,-0 29.167,14.583l35.416,0c0,0 1.25,-6.667 11.667,-10.417l-5.417,0Z" style="fill:url(#_Linear27);fill-rule:nonzero;"/><path d="M331.246,1011.25l-0,-47.917l-47.917,0l0,-502.083l-10.416,-8.333l-0,-54.167l-181.25,-22.917l-3.334,0l0,586.667l-15.416,0l-0,38.333l87.5,0l-0,35.417l45.833,4.167l-0,-4.167l56.25,0l14.583,-14.583l81.25,-0l0,-10.417l-27.083,0Z" style="fill:url(#_Linear28);fill-rule:nonzero;"/><path d="M277.079,1021.67l-14.583,14.583l-56.25,0l-0,4.167l-45.833,-4.167l-0,-35.417l-241.667,0l-0,17.5l-17.5,0l-9.167,-9.166l-62.5,-0l0,20.833l-31.25,0l0,16.667l262.5,-0l0,20.833l4.167,2.917c5.833,-0.417 12.5,-0.834 20.833,-0.834c41.667,0 35.417,14.584 35.417,14.584l37.5,-0c-0,-0 4.167,-18.75 27.083,-20.834c0,0 22.917,-6.25 43.75,-8.333c20.834,-2.083 18.75,-14.583 47.917,-14.583c-0,-0 18.75,-18.75 35.417,-8.334c-0,0 10.833,-4.166 23.333,-4.583l-0,-5.833l-59.167,-0Z" style="fill:url(#_Linear29);fill-rule:nonzero;"/><path d="M493.746,838.333l-135.417,14.584l0,168.75l-22.916,-0l-0,5.833c12.916,-0.833 26.666,2.083 30.833,17.083c-0,0 20.833,-25 43.75,-12.5c-0,0 16.667,-12.5 31.25,-2.083c-0,0 29.167,-17.5 52.083,-7.083l0.417,-184.584Z" style="fill:url(#_Linear30);fill-rule:nonzero;"/><path d="M60.413,1067.5l-0,-20.833l-129.167,-0c0.833,22.083 0.417,44.166 -0,66.25c6.667,1.666 14.583,2.5 25,2.5c7.083,-0 15.417,-0 24.583,0.416c-0.416,-7.916 1.25,-25.833 19.167,-27.5c-0,0 4.167,-10.416 35.417,-10.416c-0,-0 5.416,-5.417 29.166,-7.5l-4.166,-2.917Z" style="fill:url(#_Linear31);fill-rule:nonzero;"/><g opacity="0.88"><g><path d="M-38.337,382.083l-0,579.584l29.166,0.416l0,-581.666l-29.166,1.666Z" style="fill:url(#_Linear32);fill-rule:nonzero;stroke:#306c35;stroke-width:4.17px;"/><path d="M-9.171,380.417l0,581.666l29.167,0l-0,-583.333l-29.167,1.667Z" style="fill:url(#_Linear33);fill-rule:nonzero;stroke:#306c35;stroke-width:4.17px;"/><path d="M19.996,378.75l-0,583.333l32.083,0.417l0,-585.833l-32.083,2.083Z" style="fill:url(#_Linear34);fill-rule:nonzero;stroke:#306c35;stroke-width:4.17px;"/></g><path d="M-128.337,541.25l215.833,-9.167" style="fill:none;fill-rule:nonzero;stroke:#306c35;stroke-width:4.17px;"/><path d="M-128.337,582.083l215.833,-9.583" style="fill:none;fill-rule:nonzero;stroke:#306c35;stroke-width:4.17px;"/><path d="M-128.337,626.667l215.833,-9.167" style="fill:none;fill-rule:nonzero;stroke:#306c35;stroke-width:4.17px;"/><path d="M-128.337,668.333l215.833,-9.166" style="fill:none;fill-rule:nonzero;stroke:#306c35;stroke-width:4.17px;"/><path d="M-128.337,711.25l215.833,-5.417" style="fill:none;fill-rule:nonzero;stroke:#306c35;stroke-width:4.17px;"/><path d="M-128.337,752.917l215.833,-5.417" style="fill:none;fill-rule:nonzero;stroke:#306c35;stroke-width:4.17px;"/><path d="M-128.337,796.667l215.833,-3.334" style="fill:none;fill-rule:nonzero;stroke:#306c35;stroke-width:4.17px;"/></g><g><g><path d="M156.246,383.333l-0,579.167l19.583,0.417l0,-577.084l-19.583,-2.5Z" style="fill:url(#_Linear35);fill-rule:nonzero;stroke:#306c35;stroke-width:4.17px;"/><path d="M175.829,385.833l0,577.084l16.667,0.833l-0,-575.417l-16.667,-2.5Z" style="fill:url(#_Linear36);fill-rule:nonzero;stroke:#306c35;stroke-width:4.17px;"/><path d="M135.413,380.833l-0,580.834l20.833,0.833l-0,-579.167l-20.833,-2.5Z" style="fill:url(#_Linear37);fill-rule:nonzero;stroke:#306c35;stroke-width:4.17px;"/><path d="M192.496,388.333l-0,575.417l22.083,0.833l0,-573.333l-22.083,-2.917Z" style="fill:url(#_Linear38);fill-rule:nonzero;stroke:#306c35;stroke-width:4.17px;"/><path d="M252.079,396.25l0,569.583l19.584,0.417l-0,-567.5l-19.584,-2.5Z" style="fill:url(#_Linear39);fill-rule:nonzero;stroke:#306c35;stroke-width:4.17px;"/><path d="M231.246,393.333l-0,571.667l20.833,0.833l0,-569.583l-20.833,-2.917Z" style="fill:url(#_Linear40);fill-rule:nonzero;stroke:#306c35;stroke-width:4.17px;"/><path d="M214.579,391.25l0,573.333l16.667,0.417l-0,-571.667l-16.667,-2.083Z" style="fill:url(#_Linear41);fill-rule:nonzero;stroke:#306c35;stroke-width:4.17px;"/></g><path d="M136.246,532.917l136.667,16.666" style="fill:none;fill-rule:nonzero;stroke:#306c35;stroke-width:4.17px;"/><path d="M136.246,570.417l136.667,16.666" style="fill:none;fill-rule:nonzero;stroke:#306c35;stroke-width:4.17px;"/><path d="M136.246,615.417l136.667,16.666" style="fill:none;fill-rule:nonzero;stroke:#306c35;stroke-width:4.17px;"/><path d="M136.246,659.167l136.667,16.666" style="fill:none;fill-rule:nonzero;stroke:#306c35;stroke-width:4.17px;"/><path d="M136.246,703.75l136.667,16.667" style="fill:none;fill-rule:nonzero;stroke:#306c35;stroke-width:4.17px;"/><path d="M136.246,745.417l136.667,16.666" style="fill:none;fill-rule:nonzero;stroke:#306c35;stroke-width:4.17px;"/><path d="M136.246,788.333l136.667,16.667" style="fill:none;fill-rule:nonzero;stroke:#306c35;stroke-width:4.17px;"/></g><path d="M1215.83,1011.25l30.834,0l12.5,-910.833l-41.25,-1.667l2.083,1.25l-4.167,911.25Z" style="fill:url(#_Linear42);fill-rule:nonzero;"/><path d="M1259.16,100.417l-12.5,910.833l-30.834,0l4.167,-911.25l-2.083,-1.25l-171.667,-6.25l-3.75,945.833l9.583,0l0,50l56.25,0c0,0 2.084,-6.25 22.917,-6.25l27.083,0l0,-16.666l64.584,-0l-0,-31.25l31.25,-0l-0,-62.5l145.833,2.083l-0,-50l35.417,-0l-0,-816.667l-176.25,-6.666Z" style="fill:url(#_Linear43);fill-rule:nonzero;"/><g><rect x="1010.41" y="154.167" width="5.417" height="151.667" style="fill:#9dd08c;stroke:#9dd08c;stroke-width:4.21px;"/><rect x="1010.41" y="321.667" width="5.417" height="143.333" style="fill:#fff;stroke:#fff;stroke-width:4.21px;"/><rect x="1010.41" y="487.5" width="5.417" height="143.333" style="fill:#9dd08c;stroke:#9dd08c;stroke-width:4.21px;"/><rect x="1010.41" y="651.667" width="5.417" height="143.333" style="fill:#fff;stroke:#fff;stroke-width:4.21px;"/><rect x="1010.41" y="811.25" width="5.417" height="194.583" style="fill:#9dd08c;stroke:#9dd08c;stroke-width:4.21px;"/></g><g><path d="M402.496,1035.83l-17.083,1.25l-0,-110l17.083,-0.833l-0,109.583Z" style="fill:#9dd08c;fill-rule:nonzero;"/><path d="M402.496,908.333l-17.083,0.834l-0,-7.084l17.083,-0.833l-0,7.083Z" style="fill:#9dd08c;fill-rule:nonzero;"/><path d="M431.246,1034.17l-16.667,1.25l0,-110l16.667,-0.834l-0,109.584Z" style="fill:#fff;fill-rule:nonzero;"/><path d="M431.246,906.667l-16.667,0.833l0,-7.083l16.667,-0.834l-0,7.084Z" style="fill:#fff;fill-rule:nonzero;"/><path d="M460.413,1032.92l-17.084,0.833l0,-110l17.084,-0.833l-0,110Z" style="fill:#9dd08c;fill-rule:nonzero;"/><path d="M460.413,905l-17.084,0.833l0,-7.083l17.084,-0.833l-0,7.083Z" style="fill:#9dd08c;fill-rule:nonzero;"/></g><path d="M1786.25,955l-18.75,-1.667l1.25,1.667l17.5,0Z" style="fill:url(#_Linear44);fill-rule:nonzero;"/><path d="M1850.83,959.167l-63.333,-4.167l-1.25,0l62.917,5l1.666,-0.833Z" style="fill:url(#_Linear45);fill-rule:nonzero;"/><path d="M1740.83,951.667l-120.833,35.833l-0,7.083l5.833,0l0,18.75l115,1.667l0,-63.333Z" style="fill:#264f27;fill-rule:nonzero;"/><path d="M2445.83,898.75l-64.583,29.167l-0,72.916l-395,-17.916l-15.417,-15.417l-120,-8.333l-1.666,0.833l-62.917,-5l-17.5,0l-1.25,-1.667l-26.667,-1.666l0,63.333l690.417,10l61.25,0l-0,-98.333l-46.667,-27.917Z" style="fill:url(#_Linear46);fill-rule:nonzero;"/><path d="M1452.08,975l0,-51.25l-52.083,0l-0,50l-145.833,-2.083l-0,62.5l-31.25,-0l-0,31.25l-64.584,-0l0,16.666l-27.083,0c-20.833,0 -22.917,6.25 -22.917,6.25l-24.583,0l1.667,4.167c-0,0 25,-8.333 35.416,4.167c0,-0 25,-6.25 35.417,-0c-0,-0 41.667,-4.167 64.583,-0l95.834,4.166c-0,0 31.25,-10.416 47.916,-4.166c0,-0 15.834,-0.834 30.417,1.25l-0,-122.917l57.083,0Z" style="fill:url(#_Linear47);fill-rule:nonzero;"/><path d="M1740.83,951.667l26.667,2.083l-22.083,-30l-293.75,0l-0,51.25l-56.667,0l-0,122.5c6.667,0.833 12.917,2.5 17.5,5c-0,0 35.417,-10.417 54.167,-2.083l70.833,4.166c-0,0 16.25,-7.083 34.167,-10.416l-0,-81.667l54.166,0.833l0,-18.75l-5.416,0l-0,-7.083l120.416,-35.833Z" style="fill:url(#_Linear48);fill-rule:nonzero;"/><path d="M1838.33,1016.67l0,84.166c2.917,-0.416 6.25,-0.833 9.584,-1.25l-0,-82.916l-9.584,-0Z" style="fill:url(#_Linear49);fill-rule:nonzero;"/><path d="M1757.5,1015.42l-0,80.833c23.75,-0.833 50,0 65.417,6.667c-0,-0 21.25,-0.834 30.416,-2.084l0,-84.166l-95.833,-1.25Z" style="fill:url(#_Linear50);fill-rule:nonzero;"/><path d="M1571.66,1012.5l-0,82.083c9.166,-1.666 18.75,-2.083 26.25,0c-0,0 39.583,-6.25 50,4.167c-0,0 33.333,-10.417 56.25,2.083c-0,0 25,-3.75 53.333,-4.583l-0,-80.833l-185.833,-2.917Z" style="fill:url(#_Linear51);fill-rule:nonzero;"/><path d="M2571.66,1025l-140.417,0l-515.417,-7.5l0,78.333c11.25,0.417 20.417,2.084 25.834,5l14.583,4.167c-0,0 100,-10.417 127.083,-2.083l20.834,8.333c-0,0 50,-12.5 79.166,-2.083l14.584,4.166c-0,0 54.166,-4.166 70.833,4.167c-0,0 19.583,-1.25 44.583,-1.667l0,-62.916l258.334,2.916l-0,-30.833Z" style="fill:url(#_Linear52);fill-rule:nonzero;"/><path d="M1847.91,1016.67l-0,82.916c19.583,-2.083 47.083,-4.583 67.916,-3.75l0,-78.333l-67.916,-0.833Z" style="fill:url(#_Linear53);fill-rule:nonzero;"/><clipPath id="_clip54"><rect x="-2559.17" y="0" width="5833.33" height="1916.67"/></clipPath><g clip-path="url(#_clip54)"><path d="M3052.08,1171.67l-56.25,-0c0,-0 -1085.42,-43.75 -1160.42,-45.834c-75,-2.083 -208.334,0 -229.167,-6.25c-20.833,-6.25 -64.583,-2.083 -64.583,-2.083c-25,-4.167 -68.75,0 -68.75,0c-31.25,-6.25 -114.584,-4.167 -114.584,-4.167c-31.25,-8.333 -72.916,0 -72.916,0c-20.834,-8.333 -56.25,-4.166 -56.25,-4.166c-0.417,-0.417 -1.25,-0.417 -2.084,-0.834c-11.25,2.917 -22.083,5.417 -33.333,7.917c0.833,0.417 1.667,0.833 2.083,1.25l31.25,4.167c0,-0 43.75,-12.5 64.584,-4.167c20.833,8.333 47.916,2.083 47.916,2.083c0,0 50,-6.25 81.25,6.25c31.25,12.5 45.834,-6.25 85.417,6.25c-0,0 62.5,-12.5 104.167,6.25l68.75,6.25l56.25,2.084c-0,-0 58.333,2.083 68.75,2.083c10.416,0 62.5,-10.417 68.75,-8.333c6.25,2.083 54.166,8.333 68.75,12.5c14.583,4.166 72.916,4.166 72.916,4.166c0,0 50,-4.166 77.084,4.167c27.083,8.333 75,4.167 75,4.167c-0,-0 58.333,-8.334 77.083,-8.334c18.75,0 75,10.417 75,10.417c-0,0 45.833,-4.167 66.667,-2.083c20.833,2.083 95.833,14.583 95.833,14.583c-0,0 50,-6.25 72.917,-4.167c22.916,2.084 64.583,12.5 64.583,12.5c-0,0 66.667,-12.5 100,-10.416c33.333,2.083 104.167,18.75 104.167,18.75c-0,-0 64.583,-10.417 87.5,-4.167c22.916,6.25 89.583,10.417 89.583,10.417c-0,-0 52.083,-2.084 110.417,-0c58.333,2.083 83.333,8.333 106.25,8.333c14.583,0 47.5,-1.667 75,-2.5l-0,-33.333c-40.417,-0.417 -215.834,-3.75 -239.584,-3.75Z" style="fill:#7bc46c;fill-rule:nonzero;"/></g><path d="M681.663,687.917l48.75,-0.834c-16.667,-17.5 -37.5,-18.75 -55.417,-14.583l25.833,-37.5c-19.166,2.5 -31.25,13.75 -39.166,27.083c-2.917,-27.916 -24.167,-52.083 -24.167,-52.083l6.667,48.333c-21.25,-22.083 -58.334,-24.583 -58.334,-24.583l42.084,32.917c-27.917,-3.75 -56.667,11.666 -56.667,11.666l63.75,6.25c-32.5,12.917 -44.583,56.667 -44.583,56.667l43.333,-36.667c-20,26.667 -10.833,69.167 -10.833,69.167l26.25,-67.5c-0.417,3.75 -0.417,5.833 -0.417,5.833l1.667,-2.5l-3.334,397.084l20.417,-0l-6.667,-392.917l18.334,52.083c13.333,-25 3.333,-48.333 -8.75,-65l42.916,28.334c-3.75,-21.667 -17.083,-34.167 -31.666,-41.25Z" style="fill:#264f27;fill-rule:nonzero;"/><path d="M863.329,743.75l41.667,-0.833c-14.167,-15 -32.083,-15.834 -47.083,-12.5l22.083,-32.084c-16.25,2.084 -26.667,11.667 -33.333,22.917c-2.5,-23.75 -20.834,-44.583 -20.834,-44.583l5.417,41.25c-18.333,-18.75 -50,-21.25 -50,-21.25l35.833,27.916c-23.75,-3.333 -48.333,10 -48.333,10l54.167,5.417c-27.5,10.833 -38.334,48.333 -38.334,48.333l37.084,-31.25c-17.084,22.917 -9.167,58.75 -9.167,58.75l22.5,-57.5c-0.417,2.917 -0.417,5 -0.417,5l1.25,-2.083l-2.916,337.917l17.5,-0l-5.834,-335l15.417,44.583c11.667,-21.25 2.917,-41.25 -7.5,-55.417l36.667,24.167c-2.084,-17.083 -13.334,-27.5 -25.834,-33.75Z" style="fill-rule:nonzero;"/><path d="M1181.25,1105c-20.833,-4.167 -56.25,-2.083 -56.25,-2.083c-3.75,-5 -8.75,-8.75 -12.083,-11.667c-11.667,-4.167 -27.5,1.25 -27.5,1.25l-1.667,-4.167l-26.25,0c-10,3.75 -11.667,10.417 -11.667,10.417l-35.416,0c-2.084,-14.583 -29.167,-14.583 -29.167,-14.583c-8.333,-16.667 -43.75,-14.584 -43.75,-14.584c-0,0 -2.083,-14.583 -31.25,-16.666c-29.167,-2.084 -33.333,16.666 -33.333,16.666c-14.584,-4.166 -27.084,2.084 -27.084,2.084c-35.416,-22.917 -70.833,4.166 -70.833,4.166c-10.417,-31.25 -52.083,-29.166 -52.083,-29.166c-8.334,-37.5 -52.084,-22.917 -52.084,-22.917c-33.333,-10.417 -56.25,22.917 -56.25,22.917c-2.083,-14.584 -29.166,-10.417 -29.166,-10.417c-29.167,-25 -79.167,-4.167 -79.167,-4.167c-22.917,-27.083 -64.583,-2.083 -64.583,-2.083c-14.584,-10.417 -31.25,2.083 -31.25,2.083c-22.917,-12.5 -43.75,12.5 -43.75,12.5c-8.334,-29.166 -54.167,-12.5 -54.167,-12.5c-16.667,-10.416 -35.417,8.334 -35.417,8.334c-29.166,-0 -27.083,12.5 -47.916,14.583c-20.834,2.083 -43.75,8.333 -43.75,8.333c-22.917,2.084 -27.084,20.834 -27.084,20.834l-37.5,-0c0,-0 6.25,-14.584 -35.416,-14.584c-41.667,0 -50,8.334 -50,8.334c-31.25,-0 -35.417,10.416 -35.417,10.416c-17.5,1.667 -19.167,19.167 -19.167,27.5c32.917,0.417 76.25,1.667 94.167,1.667c22.917,-0 54.167,2.083 93.75,4.167c39.583,2.083 58.333,6.25 114.583,6.25c10.834,-0 22.084,-0 34.167,0.416c8.75,-7.916 22.5,-17.5 38.75,-15c-0,0 22.917,-6.25 41.667,-2.083c-0,0 31.25,-12.5 52.083,2.083c-0,0 31.25,-8.333 43.75,6.25c-0,0 45.833,-25 64.583,-8.333c0,0 27.084,-4.167 35.417,2.083c-0,0 22.917,-14.583 43.75,-8.333c-0,0 37.5,-12.5 56.25,-4.167c-0,0 41.667,-2.083 56.25,10.417l43.75,0c-0,0 37.5,-6.25 56.25,2.083c-0,0 39.583,-4.166 58.333,6.25c0,0 39.584,-10.416 56.25,0c0,0 33.75,-11.666 54.167,-9.583c2.5,0.417 4.583,0.833 6.25,1.25c18.75,6.25 35.417,-2.083 58.333,4.167c22.917,6.25 64.584,-0 64.584,-0c-0,-0 35.416,-3.75 45.833,0.833c11.25,-2.5 22.5,-5 33.333,-7.917c-13.75,-5.416 -45.833,-3.333 -45.833,-3.333Z" style="fill:#1d3a1d;fill-rule:nonzero;"/><path d="M861.663,1100c-62.5,0 -208.334,-20.833 -208.334,-20.833c0,-0 41.667,-41.667 104.167,-50c62.5,-8.334 66.667,8.333 66.667,8.333c-0,0 13.333,-15.833 46.25,0.417c32.916,16.25 32.916,45.416 32.916,45.416" style="fill:#1d3a1d;fill-rule:nonzero;"/><g><g><g><g><path d="M1345.83,215.417l-13.333,-0.417l-0,-36.667l13.333,0.417l0,36.667Z" style="fill-rule:nonzero;"/><path d="M1370.83,216.25l-13.333,-0.417l-0,-36.666l13.333,0.416l0,36.667Z" style="fill-rule:nonzero;"/></g><g><path d="M1345.83,289.167l-13.333,-0.417l-0,-36.25l13.333,0.417l0,36.25Z" style="fill-rule:nonzero;"/><path d="M1370.83,290l-13.333,-0.417l-0,-36.25l13.333,0.417l0,36.25Z" style="fill-rule:nonzero;"/></g></g><g><g><path d="M1345.83,363.333l-13.333,-0.416l-0,-36.667l13.333,0.417l0,36.666Z" style="fill-rule:nonzero;"/><path d="M1370.83,364.167l-13.333,-0.417l-0,-36.667l13.333,0.417l0,36.667Z" style="fill-rule:nonzero;"/></g></g></g><g><g><g><path d="M1345.83,437.917l-13.333,-0.417l-0,-36.667l13.333,0.417l0,36.667Z" style="fill-rule:nonzero;"/><path d="M1370.83,438.75l-13.333,-0.417l-0,-36.666l13.333,0.416l0,36.667Z" style="fill-rule:nonzero;"/></g></g><g><g><path d="M1345.83,511.667l-13.333,-0.417l-0,-36.25l13.333,0.417l0,36.25Z" style="fill-rule:nonzero;"/><path d="M1370.83,512.5l-13.333,-0.417l-0,-36.25l13.333,0.417l0,36.25Z" style="fill-rule:nonzero;"/></g></g></g></g><g><g><g><path d="M1345.83,585.833l-13.333,-0.416l-0,-36.667l13.333,0.417l0,36.666Z" style="fill-rule:nonzero;"/><path d="M1370.83,586.667l-13.333,-0.417l-0,-36.667l13.333,0.417l0,36.667Z" style="fill-rule:nonzero;"/></g></g><g><g><path d="M1345.83,659.583l-13.333,-0.416l-0,-36.25l13.333,0.416l0,36.25Z" style="fill-rule:nonzero;"/><path d="M1370.83,660.417l-13.333,-0.417l-0,-36.25l13.333,0.417l0,36.25Z" style="fill-rule:nonzero;"/></g></g></g><g><g><g><path d="M1345.83,734.167l-13.333,-0.417l-0,-36.667l13.333,0.417l0,36.667Z" style="fill-rule:nonzero;"/><path d="M1370.83,735l-13.333,-0.417l-0,-36.666l13.333,0.416l0,36.667Z" style="fill-rule:nonzero;"/></g></g><g><g><path d="M1345.83,807.917l-13.333,-0.417l-0,-36.25l13.333,0.417l0,36.25Z" style="fill-rule:nonzero;"/><path d="M1370.83,808.75l-13.333,-0.417l-0,-36.25l13.333,0.417l0,36.25Z" style="fill-rule:nonzero;"/></g></g></g><g><g><g><g><path d="M1139.58,209.167l-13.333,-0.417l-0,-36.25l13.333,0.417l0,36.25Z" style="fill-rule:nonzero;"/><path d="M1164.58,210l-13.333,-0.417l-0,-36.25l13.333,0.417l0,36.25Z" style="fill-rule:nonzero;"/></g><g><path d="M1139.58,283.333l-13.333,-0.416l-0,-36.667l13.333,0.417l0,36.666Z" style="fill-rule:nonzero;"/><path d="M1164.58,284.167l-13.333,-0.417l-0,-36.667l13.333,0.417l0,36.667Z" style="fill-rule:nonzero;"/></g></g><g><g><path d="M1139.58,357.083l-13.333,-0.416l-0,-36.25l13.333,0.416l0,36.25Z" style="fill-rule:nonzero;"/><path d="M1164.58,357.917l-13.333,-0.417l-0,-36.25l13.333,0.417l0,36.25Z" style="fill-rule:nonzero;"/></g></g></g><g><g><g><path d="M1139.58,431.667l-13.333,-0.417l-0,-36.667l13.333,0.417l0,36.667Z" style="fill-rule:nonzero;"/><path d="M1164.58,432.5l-13.333,-0.417l-0,-36.666l13.333,0.416l0,36.667Z" style="fill-rule:nonzero;"/></g></g><g><g><path d="M1139.58,505.417l-13.333,-0.417l-0,-36.25l13.333,0.417l0,36.25Z" style="fill-rule:nonzero;"/><path d="M1164.58,506.25l-13.333,-0.417l-0,-36.25l13.333,0.417l0,36.25Z" style="fill-rule:nonzero;"/></g></g></g></g><g><g><g><path d="M1139.58,579.583l-13.333,-0.416l-0,-36.667l13.333,0.417l0,36.666Z" style="fill-rule:nonzero;"/><path d="M1164.58,580.417l-13.333,-0.417l-0,-36.667l13.333,0.417l0,36.667Z" style="fill-rule:nonzero;"/></g></g><g><g><path d="M1139.58,653.333l-13.333,-0.416l-0,-36.25l13.333,0.416l0,36.25Z" style="fill-rule:nonzero;"/><path d="M1164.58,654.167l-13.333,-0.417l-0,-36.25l13.333,0.417l0,36.25Z" style="fill-rule:nonzero;"/></g></g></g><g><g><g><path d="M1139.58,727.917l-13.333,-0.417l-0,-36.25l13.333,0.417l0,36.25Z" style="fill-rule:nonzero;"/><path d="M1164.58,728.75l-13.333,-0.417l-0,-36.25l13.333,0.417l0,36.25Z" style="fill-rule:nonzero;"/></g></g><g><g><path d="M1139.58,802.083l-13.333,-0.416l-0,-36.667l13.333,0.417l0,36.666Z" style="fill-rule:nonzero;"/><path d="M1164.58,802.917l-13.333,-0.417l-0,-36.667l13.333,0.417l0,36.667Z" style="fill-rule:nonzero;"/></g></g></g><g><g><g><path d="M1345.83,881.667l-13.333,-0.417l-0,-36.25l13.333,0.417l0,36.25Z" style="fill-rule:nonzero;"/><path d="M1370.83,882.5l-13.333,-0.417l-0,-36.666l13.333,0.416l0,36.667Z" style="fill-rule:nonzero;"/></g></g></g><g><g><g><path d="M1139.58,875.417l-13.333,-0.417l-0,-36.25l13.333,0.417l0,36.25Z" style="fill-rule:nonzero;"/><path d="M1164.58,876.25l-13.333,-0.417l-0,-36.25l13.333,0.417l0,36.25Z" style="fill-rule:nonzero;"/></g></g></g><clipPath id="_clip55"><rect x="-2559.17" y="0" width="5833.33" height="1916.67"/></clipPath><g clip-path="url(#_clip55)"><path d="M3110.41,1202.92c-58.334,-2.084 -110.417,-0 -110.417,-0c-0,-0 -66.667,-4.167 -89.583,-10.417c-22.917,-6.25 -87.5,4.167 -87.5,4.167c-0,-0 -70.834,-16.667 -104.167,-18.75c-33.333,-2.084 -100,10.416 -100,10.416c-0,0 -41.667,-10.416 -64.583,-12.5c-22.917,-2.083 -72.917,4.167 -72.917,4.167c-0,0 -75,-12.5 -95.833,-14.583c-20.834,-2.084 -66.667,2.083 -66.667,2.083c-0,0 -56.25,-10.417 -75,-10.417c-18.75,0 -77.083,8.334 -77.083,8.334c-0,-0 -47.917,4.166 -75,-4.167c-27.084,-8.333 -77.084,-4.167 -77.084,-4.167c0,0 -58.333,0 -72.916,-4.166c-14.584,-4.167 -62.5,-10.417 -68.75,-12.5c-6.25,-2.084 -58.334,8.333 -68.75,8.333c-10.417,-0 -68.75,-2.083 -68.75,-2.083l-56.25,-2.084l-68.75,-6.25c-41.667,-18.75 -104.167,-6.25 -104.167,-6.25c-39.583,-12.5 -54.167,6.25 -85.417,-6.25c-31.25,-12.5 -81.25,-6.25 -81.25,-6.25c0,0 -27.083,6.25 -47.916,-2.083c-20.834,-8.333 -64.584,4.167 -64.584,4.167l-31.25,-4.167c-6.25,-6.25 -47.916,-2.083 -47.916,-2.083c-0,-0 -41.667,6.25 -64.584,-0c-22.916,-6.25 -39.583,2.083 -58.333,-4.167c-2.083,-0.833 -4.167,-1.25 -6.25,-1.25c-20.417,-2.083 -54.167,9.583 -54.167,9.583c-16.666,-10.416 -56.25,0 -56.25,0c-18.75,-10.416 -58.333,-6.25 -58.333,-6.25c-18.75,-8.333 -56.25,-2.083 -56.25,-2.083l-43.75,0c-14.583,-12.5 -56.25,-10.417 -56.25,-10.417c-18.75,-8.333 -56.25,4.167 -56.25,4.167c-20.833,-6.25 -43.75,8.333 -43.75,8.333c-8.333,-6.25 -35.417,-2.083 -35.417,-2.083c-18.75,-16.667 -64.583,8.333 -64.583,8.333c-12.5,-14.583 -43.75,-6.25 -43.75,-6.25c-20.833,-14.583 -52.083,-2.083 -52.083,-2.083c-18.75,-4.167 -41.667,2.083 -41.667,2.083c-16.25,-2.5 -30,7.084 -38.75,15c51.25,0.834 112.083,3.75 157.5,3.75c56.25,0 133.333,-2.083 195.833,0c62.5,2.084 62.5,8.334 156.25,6.25c93.75,-2.083 97.917,12.5 243.75,12.5c145.834,0 114.584,8.334 241.667,8.334c127.083,-0 116.667,10.416 237.5,12.5c120.833,2.083 131.25,8.333 270.833,14.583c139.584,6.25 93.75,6.25 237.5,10.417c143.75,4.166 162.5,8.333 304.167,12.5c141.667,4.166 256.25,18.75 414.583,27.083c158.334,8.333 243.75,12.5 364.584,18.75c98.75,5 98.75,8.75 150,5.417l-0,-51.667c-27.5,0.833 -60.417,2.5 -75,2.5c-22.917,-0 -47.917,-6.25 -106.25,-8.333Z" style="fill:#08270a;fill-rule:nonzero;stroke:#08270a;stroke-width:4.17px;"/></g><clipPath id="_clip56"><rect x="-2559.17" y="0" width="5833.33" height="1916.67"/></clipPath><g clip-path="url(#_clip56)"><path d="M3291.66,1299.17l-0,-82.084c-51.25,-3.75 -51.25,-1.25 -150,-0.833c-120.834,0.417 -206.25,0.417 -364.584,1.25c-158.333,0.417 -272.916,6.667 -414.583,5c-141.667,-1.667 -160.417,0.417 -304.167,-1.25c-143.75,-1.667 -97.916,-0.417 -237.5,-0.417c-139.583,0 -150,3.334 -270.833,1.25c-120.833,-2.083 -103.413,-7.089 -230.496,-10.839c-78.75,-2.5 -101.336,-7.837 -138.003,-7.42c-121.25,-15 -208.168,-10.491 -208.168,-10.491l-307.083,0l1.25,-66.25l-20.417,0l0.417,66.25l-86.667,0c0,0 -366.415,-30.349 -685.165,-30.349c-318.75,0 -439.835,-7.151 -439.835,-7.151l-493.75,0c-200,0 -300,-37.5 -300,-37.5l-562.5,0c-175,0 -243.75,-50 -243.75,-50l-156.25,0l32.917,120.417c-10,-0.417 -18.75,-0.417 -22.917,-0.833c-10.833,-0.417 -13.75,4.166 -14.166,6.25c-0.417,0.833 -0.417,1.25 -0.417,1.25c-0,-0 -4.167,7.916 12.5,8.333c4.583,0 15.833,0.417 29.583,0.833l0.417,0.834l32.5,-0c26.25,0.833 50.417,1.666 50.417,1.666l2.083,0c2.5,1.25 5,2.917 7.5,3.75c-2.083,-0.416 -5,-0.833 -7.083,0c-0.417,2.917 5,5.834 9.166,5c-2.916,2.084 -8.333,2.084 -12.083,0.834c-1.25,0.833 -2.5,1.666 -2.5,2.916c3.75,1.667 7.917,3.334 11.667,5c-3.75,0.417 -7.5,1.25 -11.25,1.667c6.25,2.083 12.5,3.333 18.75,4.583l-0,2.084c-7.084,0.833 -14.167,1.25 -21.25,2.083c6.25,2.917 13.75,4.583 21.25,5l-0,2.083c-2.5,1.25 -5,2.5 -7.5,3.75c2.083,1.667 5.416,2.084 8.333,1.25c0.417,1.667 1.667,3.75 3.333,5.834c0,0.416 0.417,0.833 0.834,0.833c0.416,0.417 0.833,0.833 1.25,0.833c0.833,0.834 2.083,1.25 3.75,2.084c0.416,-0 0.833,0.416 1.25,0.416c-3.334,2.5 -6.25,4.584 -9.584,7.084c-0.416,0.416 -1.25,0.833 -1.25,1.666c0,1.667 3.334,2.084 5.834,1.667c4.166,-0.417 8.333,-0.833 12.916,-1.25c7.084,-0.833 15.417,-2.917 15.834,-7.083l1.25,-0c2.916,2.083 8.333,2.5 11.666,0.833c-2.083,1.25 0.834,3.75 3.75,5c4.167,1.667 7.917,3.333 12.084,5c-1.25,-3.333 -2.5,-6.667 -3.75,-10c13.333,0.417 29.166,0.833 45,1.25c0.416,0.417 0.416,0.417 0.833,0.833c2.5,1.667 6.667,2.084 10,1.25l-0,68.75c-0,0.834 0.833,1.25 2.083,1.25c1.25,0 2.084,-0.416 2.084,-1.25l-0,-70.416l0.416,-0c6.667,-0 13.75,0.416 20.417,0.416l-0,48.334c-0,0.833 0.833,1.25 2.083,1.25c1.25,-0 2.084,-0.417 2.084,-1.25l-0,-47.917c40.416,1.25 75,2.083 75,2.083l27.916,-10.416c5.417,6.666 18.334,12.5 21.667,3.75c3.333,2.916 8.333,3.333 12.917,1.666c2.5,4.584 14.583,8.75 17.083,1.667c12.5,4.583 20.417,0.417 28.75,-4.583c3.333,-2.084 3.333,-2.917 6.25,-4.167c3.333,-1.25 8.333,-2.083 11.667,-3.75c2.083,-0.833 5,-2.5 7.5,-3.75l0.416,54.167l-0.833,-0.834l-0,2.5l-11.667,-29.166c0,-0 -4.166,18.333 4.584,30l-18.75,-15.834c-0,0 5.416,18.75 19.583,24.584l-27.5,2.5c-0,-0 12.5,6.666 24.583,5l-18.333,14.166c-0,0 16.25,-1.25 25.417,-10.833l-2.917,20.833c-0,0 9.167,-10.416 10.417,-22.5c3.333,5.834 8.75,10.417 17.083,11.667l-11.25,-16.25c7.917,1.667 17.083,1.25 24.167,-6.25l-21.25,-0.417c6.25,-3.333 12.083,-8.333 13.75,-17.5l-18.75,12.084c5.416,-7.084 9.583,-17.5 3.75,-28.334l-7.917,22.5l0.833,-57.083c1.667,-1.667 2.917,-3.75 3.334,-5.417l26.25,2.917l-0,23.75c-0,0.833 0.833,1.25 2.083,1.25c1.25,-0 2.083,-0.417 2.083,-1.25l0,-23.75l6.667,0.833l17.917,5.417l6.25,1.667l-0,31.666c-0,2.084 2.5,3.75 5.416,3.75c2.917,0 5.417,-1.25 5.417,-3.333l-0,-29.167l0.833,0c1.25,3.75 5.834,7.084 12.084,5.834c1.25,3.75 10.833,8.333 14.166,4.166c-0.833,5 10,9.167 17.084,9.584c-10,3.75 10.416,12.916 18.333,14.166c-8.333,5.417 2.917,18.334 14.167,15.417c-1.667,2.5 2.916,1.25 6.25,-0l-0,6.667l-9.584,-0.417l0,6.25l9.584,0.417l-0,7.083l-9.584,-0.417l0,6.25l9.584,0.417l-0,7.083l-9.584,-0.416l0,6.25l9.584,0.416l-0,7.084l-9.584,-0.417l0,6.25l9.584,0.417l-0,6.666l-9.584,-0.416l0,6.25l9.584,0.416l-0,7.084l-9.584,-0.417l0,6.25l9.584,0.417l-0,7.083l-10,-0.417l-0,6.25l9.583,0.417l-0,7.083l-9.583,-0.416l-0,6.25l9.583,0.416l-0,25l11.25,0.417l-0,-4.583l26.25,0.833l-0,17.917l7.083,-0l0,-4.584l41.667,1.25l-0,12.5l36.25,1.25l-0,12.5l29.167,0.834l-0,22.916l58.333,1.667l-0,-33.75l172.5,5l-0,48.333c-0,2.5 3.333,5 7.5,5c4.167,0 7.5,-2.083 7.5,-4.583l-0,-48.333l11.25,0.416l-0,-25.833l16.667,0.417l26.25,0.833l-0,8.75l9.583,7.5l17.917,0.417l8.333,-5.834l-0,-9.583l12.5,0.417l-0,9.583l9.583,7.5l17.917,0.417l8.333,-5.834l0,-10.833l59.584,1.667l-0,12.5l20.833,0.833l-0,65l7.5,2.917c-1.667,-0 -1.25,-37.917 -0.833,-67.5l8.333,0.416l4.167,-5l-0,-7.083l27.916,0.833l0,218.334l22.917,22.083l42.5,1.25l22.083,0.833l0,10.834l27.917,31.25l1.25,1.666l106.25,3.334l-0,-43.75l110.417,3.333l-0,-275.417l19.583,0.417l-0,-27.917l11.25,-1.25l73.75,2.084l10.417,-6.25l-0,-31.667l0.833,0l-0,-9.167l1.25,-0.416l26.25,0.833l-0,10l23.75,5l26.25,0.833l-0,7.084l5.417,2.916l1.25,0l-0,35.417l5.416,-0.833l0,-34.584l7.084,0l-0,-9.583l27.083,0.833c4.167,3.334 12.5,7.917 21.667,7.917l4.166,5.417l5.417,-0l-0,12.5l4.167,-0l-0,-9.584l54.166,13.334l2.917,0.833l195,5.833l-0,232.084l12.5,0.416l-0,27.917l-12.5,2.083l-0,9.167l13.333,0.833l32.084,2.084l27.916,2.083l30.417,2.083l58.333,4.167l32.084,2.083l-0,-0.833l36.25,2.5l3.333,0.417l43.75,-2.084l-0,0.417l20.833,-1.25l19.584,-1.25l16.666,-0.833l22.084,-1.25l16.666,-0.834l12.084,-0.833l29.583,-1.667l-0,-34.583l10.417,-5l-0,-298.75l30,0.417l-0,10.416l25,0.834l-0,-10.834l20,0.417l-0,49.583l64.583,6.25l-0,12.5l30.417,7.917l1.25,0l180.416,2.917l5.417,-5l-0,-8.75l8.333,-0l0.834,117.916l-1.667,-2.5c-0,0 -0,2.084 0.417,5.834l-26.25,-67.5c-0,-0 -9.167,42.083 10.833,69.166l-43.333,-36.666c-0,-0 12.5,43.75 44.583,56.666l-63.75,6.25c-0,0 28.75,15.417 56.667,11.667l-42.084,32.917c0,-0 37.084,-2.5 58.334,-24.584l-6.667,48.334c-0,-0 21.25,-24.167 24.167,-52.084c7.916,12.917 20,24.167 39.166,27.084l-25.833,-37.5c17.917,4.166 38.75,2.916 55.417,-14.584l-48.75,-0.833c14.583,-7.083 27.916,-19.583 31.25,-40.417l-42.917,28.334c12.083,-16.25 22.083,-40 8.75,-65l-18.333,52.083l2.083,-113.75l91.667,1.25l-0,415.833l289.583,73.75l2.5,0l171.667,1.25l40.833,0.417l176.25,1.25l-0,-433.75l41.667,1.25l-0,-9.167l20.833,0.417l-0,163.75l68.75,10l-0,15.833l218.75,30.417l-0,41.25l57.083,9.583l1.25,0.417l200,-2.083l0,-40l131.25,-1.25l0,-197.084l45.834,0l-0,-18.75l81.25,-0.416l-0,17.5l27.083,3.333l81.25,-0.417l-0,-63.75l1.25,0l15.417,0.417l-0,24.167l23.75,3.333l3.333,185.417l-14.167,-40.417c-10.416,19.167 -2.5,37.5 6.667,50.417l-33.333,-21.667c2.5,16.25 12.916,25.417 24.166,31.25l-37.916,0.417c12.916,13.75 29.166,14.583 42.916,11.25l-20,29.166c15,-2.083 24.584,-10.833 30.417,-20.833c2.083,21.667 18.75,40.417 18.75,40.417l-5,-37.5c16.667,17.083 45.417,19.166 45.417,19.166l-32.5,-25.416c21.666,2.916 44.166,-9.167 44.166,-9.167l-47.916,-5c25,-10 34.583,-43.75 34.583,-43.75l-33.75,28.333c15.833,-20.833 8.333,-53.333 8.333,-53.333l-20.416,52.5c0.416,-2.917 0.416,-4.583 0.416,-4.583l-1.25,1.666l1.667,-186.666l15.417,2.083l-0,32.083c5.833,2.084 12.083,4.167 17.916,6.25l0,-0.416l40.417,5l-0,9.166l68.75,8.75l91.667,-3.75l-0,-30.833l82.5,-4.167l19.583,-0.833l-0,-17.5c0.417,-0.417 0.833,-0.417 1.25,-0.417c0.833,-0.416 1.667,-0.416 2.5,-0.416c1.25,-0.417 2.5,-0.834 3.75,-1.667c0.417,0 0.833,-0.417 1.25,-0.417c0.417,-0.416 0.833,-1.25 1.25,-1.666c0.833,-0.834 1.25,-2.5 3.333,-2.917c-1.666,0 -2.916,0 -4.166,0.417c-1.667,0.416 -2.917,0.416 -5,-0c-2.084,-0 -1.667,-0 -2.917,0.416l-1.25,0l-0,-3.75l72.917,-2.5l0.833,104.584l-1.25,-1.667c-0,0 -0,1.667 0.417,4.583l-20.417,-52.5c-0,0 -7.083,32.5 8.333,53.334l-33.75,-28.334c0,0 9.584,33.75 34.584,43.75l-49.167,5c-0,0 22.083,12.084 44.167,9.167l-32.5,25.417c-0,-0 28.75,-2.084 45.416,-19.167l-5,37.5c0,0 16.667,-18.75 18.75,-40.417c5.834,10 15.417,18.75 30.417,20.834l-20,-29.167c13.75,2.917 30,2.5 42.917,-11.25l-37.917,-0.417c11.25,-5.416 21.667,-15 24.167,-31.25l-33.334,21.667c9.167,-12.5 17.084,-30.833 6.667,-50.417l-14.167,40.417l0.834,-58.333l146.666,-0c-6.25,16.666 0.417,32.083 8.75,43.333l-32.083,-20.833c2.5,15.416 12.5,24.583 23.333,30l-36.25,0.416c12.5,12.917 27.917,13.75 41.25,10.834l-19.166,27.916c14.166,-2.083 23.333,-10.416 29.166,-20c2.084,20.834 17.917,38.75 17.917,38.75l-5,-35.833c15.833,16.25 43.75,18.333 43.75,18.333l-31.25,-24.583c15,2.083 30.417,-3.333 37.917,-6.667c4.166,5 9.583,8.75 15,11.667l-36.25,0.417c12.5,12.916 27.916,13.75 41.25,10.833l-19.167,27.917c14.167,-2.084 23.333,-10.417 29.167,-20c2.083,20.833 17.916,38.75 17.916,38.75l-5,-35.834c15.834,16.25 43.75,18.334 43.75,18.334l-31.25,-24.584c12.5,1.667 25.417,-1.666 33.75,-5l-0.833,1.667c12.083,-1.667 19.583,-8.75 24.583,-16.667c1.667,17.5 15,32.5 15,32.5l-4.166,-30c13.333,13.75 36.666,15.417 36.666,15.417l-26.25,-20.417c17.5,2.5 35.417,-7.083 35.417,-7.083l-39.583,-3.75c10.833,-4.167 17.916,-14.167 22.5,-22.5l22.083,0l-0,-59.167c5.417,0.834 11.25,2.084 16.667,3.334l-0,-90.834l12.916,0.417l0,-81.25c-1.666,0.417 -8.333,0.417 -20.416,0.417Zm-1474.17,67.916l-30,0.417l49.167,-0.833l-19.167,0.416Zm390,110l-0.417,-6.25l0.834,10.417l-0.417,-4.167Zm-63.333,-95.833l-100.417,0.417l181.667,-0.834l-81.25,0.417Zm1062.92,165l-25,0.417c4.584,-7.084 7.084,-14.167 7.917,-17.084c3.75,7.917 10.417,13.334 17.083,16.667Zm-17.5,-17.917l-31.25,26.25c6.25,-8.333 8.75,-19.166 9.584,-28.333l20.833,0c0.417,0.833 0.833,1.667 0.833,2.083Zm-120,-2.083l4.167,0l-8.333,7.083c1.666,-2.083 2.916,-4.583 4.166,-7.083Zm-36.25,-33.333l11.25,-0l0.417,32.083l-0,2.083l-11.667,-34.166Zm19.584,37.083l-0,-3.75l3.333,0l-2.5,6.25c0.417,-2.5 0.417,-4.167 0.417,-4.167l-1.25,1.667Zm46.25,6.667c0.833,6.25 3.333,11.25 6.25,15.416l-40.834,-4.166c10.834,-4.167 18.75,-13.334 24.167,-22.084l31.667,0c-0.417,12.084 5,22.917 11.25,31.25l-32.5,-20.416Zm31.25,-10.417l7.083,0l0.417,21.667l-7.5,-21.667Zm16.25,27.5c0.416,-2.5 0.416,-4.167 0.416,-4.167l-1.25,1.667l0.417,-24.583l11.25,-0l-10.833,27.083Zm52.5,20l-41.667,-4.167c10,-3.75 17.083,-11.666 22.5,-19.583c9.583,7.917 21.25,8.333 31.25,5.833l-12.083,17.917Zm-3.75,-47.5l12.083,0c1.667,4.583 4.167,8.75 7.083,12.5l-19.166,-12.5Zm23.333,0l1.667,0l-0,4.583l-1.667,-4.583Zm9.167,9.167c0.416,-2.084 0.416,-3.75 0.416,-3.75l-0.833,1.666l-0,-7.083l4.167,0l-3.75,9.167Zm9.583,0.833c2.5,-2.917 4.167,-6.667 5.417,-10l6.666,0l-12.083,10Z" style="fill:url(#_Linear57);fill-rule:nonzero;"/></g><clipPath id="_clip58"><rect x="-2559.17" y="0" width="5833.33" height="1916.67"/></clipPath><g clip-path="url(#_clip58)"><path d="M3295.83,1264.58c-51.25,3.334 -51.25,-0.416 -150,-5.416c-120.833,-6.25 -206.25,-10.417 -364.583,-18.75c-158.333,-8.334 -272.917,-22.917 -414.583,-27.084c-141.667,-4.166 -160.417,-8.333 -304.167,-12.5c-143.75,-4.166 -97.917,-4.166 -237.5,-10.416c-139.583,-6.25 -150,-12.5 -270.833,-14.584c-120.834,-2.083 -110.417,-12.5 -237.5,-12.5c-127.084,0 -95.834,-8.333 -241.667,-8.333c-145.833,0 -150,-14.583 -243.75,-12.5c-93.75,2.083 -93.75,-4.167 -156.25,-6.25c-62.5,-2.083 -139.583,0 -195.833,0c-56.25,0 -135.417,-4.167 -191.667,-4.167c-56.25,0 -75,-4.166 -114.583,-6.25c-39.584,-2.083 -70.834,-4.166 -93.75,-4.166c-22.917,-0 -87.5,-2.084 -118.75,-2.084c-31.25,0 -43.75,-10.416 -43.75,-10.416l-70.834,-0c-37.5,-0 -58.333,-2.084 -58.333,-2.084l-104.167,0c-33.333,0 -45.833,-6.25 -45.833,-6.25l-110.417,0c-39.583,0 -62.5,-8.333 -62.5,-8.333l-191.666,0c-56.25,0 -79.167,-6.25 -79.167,-6.25l-458.333,0c-31.25,0 -45.834,-14.583 -45.834,-14.583l-654.166,-0c-25,-0 -27.084,-6.25 -27.084,-6.25l-181.25,-0c-33.333,-0 -27.083,-16.667 -27.083,-16.667l-106.25,0c-14.583,0 -14.583,-12.5 -14.583,-12.5l-254.167,0c0.417,0 0.833,21.667 0.833,58.333l253.334,0c-0,0 -0,12.5 14.583,12.5l106.25,0c-0,0 -6.25,16.667 27.083,16.667l181.25,0c0,0 2.084,6.25 27.084,6.25l654.166,0c0,0 14.584,14.583 45.834,14.583l458.333,0c-0,0 22.917,6.25 79.167,6.25l191.666,0c0,0 22.917,8.334 62.5,8.334l110.417,-0c-0,-0 12.5,6.25 45.833,6.25l104.167,-0c-0,-0 20.833,2.083 58.333,2.083l70.834,-0c-0,-0 12.5,10.417 43.75,10.417c31.25,-0 95.833,2.083 118.75,2.083c22.916,-0 54.166,2.083 93.75,4.167c39.583,2.083 58.333,6.25 114.583,6.25c56.25,-0 135.417,4.166 191.667,4.166c56.25,0 133.333,-2.083 195.833,0c62.5,2.084 62.5,8.334 156.25,6.25c93.75,-2.083 97.917,12.5 243.75,12.5c145.833,0 114.583,8.334 241.667,8.334c127.083,-0 116.666,10.416 237.5,12.5c120.833,2.083 131.25,8.333 270.833,14.583c139.583,6.25 93.75,6.25 237.5,10.417c143.75,4.166 162.5,8.333 304.167,12.5c141.666,4.166 256.25,18.75 414.583,27.083c158.333,8.333 243.75,12.5 364.583,18.75c98.75,5 98.75,8.75 150,5.417c11.667,-0.834 25.417,-1.667 43.75,-3.334l0,-58.333c-18.333,1.667 -32.5,2.5 -43.75,3.333Z" style="fill:url(#_Linear59);fill-rule:nonzero;"/></g></g></g></g><defs><linearGradient id="_Linear2" x1="0" y1="0" x2="1" y2="0" gradientUnits="userSpaceOnUse" gradientTransform="matrix(1.12446e-15,-18.3637,18.3637,1.12446e-15,2221.78,958.725)"><stop offset="0" style="stop-color:#42ad49;stop-opacity:1"/><stop offset="0.4" style="stop-color:#42ad49;stop-opacity:1"/><stop offset="1" style="stop-color:#1d3a1d;stop-opacity:1"/></linearGradient><linearGradient id="_Linear3" x1="0" y1="0" x2="1" y2="0" gradientUnits="userSpaceOnUse" gradientTransform="matrix(2.63641e-15,-43.0558,43.0558,2.63641e-15,2134.67,838.972)"><stop offset="0" style="stop-color:#42ad49;stop-opacity:1"/><stop offset="0.4" style="stop-color:#42ad49;stop-opacity:1"/><stop offset="1" style="stop-color:#1d3a1d;stop-opacity:1"/></linearGradient><linearGradient id="_Linear4" x1="0" y1="0" x2="1" y2="0" gradientUnits="userSpaceOnUse" gradientTransform="matrix(2.68453e-15,-43.8417,43.8417,2.68453e-15,2125.64,836.033)"><stop offset="0" style="stop-color:#42ad49;stop-opacity:1"/><stop offset="0.4" style="stop-color:#42ad49;stop-opacity:1"/><stop offset="1" style="stop-color:#1d3a1d;stop-opacity:1"/></linearGradient><linearGradient id="_Linear5" x1="0" y1="0" x2="1" y2="0" gradientUnits="userSpaceOnUse" gradientTransform="matrix(2.19416e-14,-358.333,358.333,2.19416e-14,2172.86,823.694)"><stop offset="0" style="stop-color:#264f27;stop-opacity:1"/><stop offset="0.05" style="stop-color:#264f27;stop-opacity:1"/><stop offset="0.69" style="stop-color:#39843f;stop-opacity:1"/><stop offset="1" style="stop-color:#39843f;stop-opacity:1"/></linearGradient><linearGradient id="_Linear6" x1="0" y1="0" x2="1" y2="0" gradientUnits="userSpaceOnUse" gradientTransform="matrix(3.73772e-14,-610.417,610.417,3.73772e-14,2099.25,1000.78)"><stop offset="0" style="stop-color:#306c35;stop-opacity:1"/><stop offset="0.28" style="stop-color:#42ad49;stop-opacity:1"/><stop offset="0.67" style="stop-color:#64bd56;stop-opacity:1"/><stop offset="0.88" style="stop-color:#9dd08c;stop-opacity:1"/><stop offset="1" style="stop-color:#9dd08c;stop-opacity:1"/></linearGradient><linearGradient id="_Linear7" x1="0" y1="0" x2="1" y2="0" gradientUnits="userSpaceOnUse" gradientTransform="matrix(469.99,-469.99,469.99,469.99,1459.48,947.814)"><stop offset="0" style="stop-color:#306c35;stop-opacity:1"/><stop offset="0.44" style="stop-color:#306c35;stop-opacity:1"/><stop offset="1" style="stop-color:#39843f;stop-opacity:1"/></linearGradient><linearGradient id="_Linear13" x1="0" y1="0" x2="1" y2="0" gradientUnits="userSpaceOnUse" gradientTransform="matrix(7.05874e-15,-115.278,115.278,7.05874e-15,320.083,1027.86)"><stop offset="0" style="stop-color:#1d3a1d;stop-opacity:1"/><stop offset="0.17" style="stop-color:#1e3c1e;stop-opacity:1"/><stop offset="0.35" style="stop-color:#224323;stop-opacity:1"/><stop offset="0.53" style="stop-color:#284f29;stop-opacity:1"/><stop offset="0.73" style="stop-color:#2f6131;stop-opacity:1"/><stop offset="0.92" style="stop-color:#37783b;stop-opacity:1"/><stop offset="1" style="stop-color:#39843f;stop-opacity:1"/></linearGradient><linearGradient id="_Linear14" x1="0" y1="0" x2="1" y2="0" gradientUnits="userSpaceOnUse" gradientTransform="matrix(292.503,0,0,292.503,754.111,567.444)"><stop offset="0" style="stop-color:#39843f;stop-opacity:1"/><stop offset="0.52" style="stop-color:#39843f;stop-opacity:1"/><stop offset="0.96" style="stop-color:#306c35;stop-opacity:1"/><stop offset="1" style="stop-color:#306c35;stop-opacity:1"/></linearGradient><linearGradient id="_Linear15" x1="0" y1="0" x2="1" y2="0" gradientUnits="userSpaceOnUse" gradientTransform="matrix(-69.8458,-798.339,798.339,-69.8458,866.196,1009.04)"><stop offset="0" style="stop-color:#000;stop-opacity:1"/><stop offset="0.11" style="stop-color:#08270a;stop-opacity:1"/><stop offset="0.55" style="stop-color:#306c35;stop-opacity:1"/><stop offset="0.79" style="stop-color:#42ad49;stop-opacity:1"/><stop offset="0.96" style="stop-color:#7bc46c;stop-opacity:1"/><stop offset="1" style="stop-color:#7bc46c;stop-opacity:1"/></linearGradient><linearGradient id="_Linear16" x1="0" y1="0" x2="1" y2="0" gradientUnits="userSpaceOnUse" gradientTransform="matrix(-70.3346,-803.931,803.931,-70.3346,885.174,1008.84)"><stop offset="0" style="stop-color:#000;stop-opacity:1"/><stop offset="0.11" style="stop-color:#08270a;stop-opacity:1"/><stop offset="0.55" style="stop-color:#306c35;stop-opacity:1"/><stop offset="0.79" style="stop-color:#42ad49;stop-opacity:1"/><stop offset="0.96" style="stop-color:#7bc46c;stop-opacity:1"/><stop offset="1" style="stop-color:#7bc46c;stop-opacity:1"/></linearGradient><linearGradient id="_Linear17" x1="0" y1="0" x2="1" y2="0" gradientUnits="userSpaceOnUse" gradientTransform="matrix(-69.2338,-791.349,791.349,-69.2338,847.124,1008.89)"><stop offset="0" style="stop-color:#000;stop-opacity:1"/><stop offset="0.11" style="stop-color:#08270a;stop-opacity:1"/><stop offset="0.55" style="stop-color:#306c35;stop-opacity:1"/><stop offset="0.79" style="stop-color:#42ad49;stop-opacity:1"/><stop offset="0.96" style="stop-color:#7bc46c;stop-opacity:1"/><stop offset="1" style="stop-color:#7bc46c;stop-opacity:1"/></linearGradient><linearGradient id="_Linear18" x1="0" y1="0" x2="1" y2="0" gradientUnits="userSpaceOnUse" gradientTransform="matrix(-68.7446,-785.757,785.757,-68.7446,827.628,1009.14)"><stop offset="0" style="stop-color:#000;stop-opacity:1"/><stop offset="0.11" style="stop-color:#08270a;stop-opacity:1"/><stop offset="0.55" style="stop-color:#306c35;stop-opacity:1"/><stop offset="0.79" style="stop-color:#42ad49;stop-opacity:1"/><stop offset="0.96" style="stop-color:#7bc46c;stop-opacity:1"/><stop offset="1" style="stop-color:#7bc46c;stop-opacity:1"/></linearGradient><linearGradient id="_Linear19" x1="0" y1="0" x2="1" y2="0" gradientUnits="userSpaceOnUse" gradientTransform="matrix(-70.8238,-809.523,809.523,-70.8238,902.086,1008.82)"><stop offset="0" style="stop-color:#000;stop-opacity:1"/><stop offset="0.11" style="stop-color:#08270a;stop-opacity:1"/><stop offset="0.55" style="stop-color:#306c35;stop-opacity:1"/><stop offset="0.79" style="stop-color:#42ad49;stop-opacity:1"/><stop offset="0.96" style="stop-color:#7bc46c;stop-opacity:1"/><stop offset="1" style="stop-color:#7bc46c;stop-opacity:1"/></linearGradient><linearGradient id="_Linear20" x1="0" y1="0" x2="1" y2="0" gradientUnits="userSpaceOnUse" gradientTransform="matrix(-72.5362,-829.095,829.095,-72.5362,959.208,1008.93)"><stop offset="0" style="stop-color:#000;stop-opacity:1"/><stop offset="0.11" style="stop-color:#08270a;stop-opacity:1"/><stop offset="0.55" style="stop-color:#306c35;stop-opacity:1"/><stop offset="0.79" style="stop-color:#42ad49;stop-opacity:1"/><stop offset="0.96" style="stop-color:#7bc46c;stop-opacity:1"/><stop offset="1" style="stop-color:#7bc46c;stop-opacity:1"/></linearGradient><linearGradient id="_Linear21" x1="0" y1="0" x2="1" y2="0" gradientUnits="userSpaceOnUse" gradientTransform="matrix(-71.4354,-816.513,816.513,-71.4354,921.157,1008.97)"><stop offset="0" style="stop-color:#000;stop-opacity:1"/><stop offset="0.11" style="stop-color:#08270a;stop-opacity:1"/><stop offset="0.55" style="stop-color:#306c35;stop-opacity:1"/><stop offset="0.79" style="stop-color:#42ad49;stop-opacity:1"/><stop offset="0.96" style="stop-color:#7bc46c;stop-opacity:1"/><stop offset="1" style="stop-color:#7bc46c;stop-opacity:1"/></linearGradient><linearGradient id="_Linear22" x1="0" y1="0" x2="1" y2="0" gradientUnits="userSpaceOnUse" gradientTransform="matrix(-74.5246,-851.816,851.816,-74.5246,1025.33,1009.07)"><stop offset="0" style="stop-color:#000;stop-opacity:1"/><stop offset="0.11" style="stop-color:#08270a;stop-opacity:1"/><stop offset="0.55" style="stop-color:#306c35;stop-opacity:1"/><stop offset="0.79" style="stop-color:#42ad49;stop-opacity:1"/><stop offset="0.96" style="stop-color:#7bc46c;stop-opacity:1"/><stop offset="1" style="stop-color:#7bc46c;stop-opacity:1"/></linearGradient><linearGradient id="_Linear23" x1="0" y1="0" x2="1" y2="0" gradientUnits="userSpaceOnUse" gradientTransform="matrix(-73.7596,-843.076,843.076,-73.7596,1001.49,1008.87)"><stop offset="0" style="stop-color:#000;stop-opacity:1"/><stop offset="0.11" style="stop-color:#08270a;stop-opacity:1"/><stop offset="0.55" style="stop-color:#306c35;stop-opacity:1"/><stop offset="0.79" style="stop-color:#42ad49;stop-opacity:1"/><stop offset="0.96" style="stop-color:#7bc46c;stop-opacity:1"/><stop offset="1" style="stop-color:#7bc46c;stop-opacity:1"/></linearGradient><linearGradient id="_Linear24" x1="0" y1="0" x2="1" y2="0" gradientUnits="userSpaceOnUse" gradientTransform="matrix(-71.925,-822.105,822.105,-71.925,940.136,1008.77)"><stop offset="0" style="stop-color:#000;stop-opacity:1"/><stop offset="0.11" style="stop-color:#08270a;stop-opacity:1"/><stop offset="0.55" style="stop-color:#306c35;stop-opacity:1"/><stop offset="0.79" style="stop-color:#42ad49;stop-opacity:1"/><stop offset="0.96" style="stop-color:#7bc46c;stop-opacity:1"/><stop offset="1" style="stop-color:#7bc46c;stop-opacity:1"/></linearGradient><linearGradient id="_Linear25" x1="0" y1="0" x2="1" y2="0" gradientUnits="userSpaceOnUse" gradientTransform="matrix(-73.1483,-836.085,836.085,-73.1483,980.347,1008.9)"><stop offset="0" style="stop-color:#000;stop-opacity:1"/><stop offset="0.11" style="stop-color:#08270a;stop-opacity:1"/><stop offset="0.55" style="stop-color:#306c35;stop-opacity:1"/><stop offset="0.79" style="stop-color:#42ad49;stop-opacity:1"/><stop offset="0.96" style="stop-color:#7bc46c;stop-opacity:1"/><stop offset="1" style="stop-color:#7bc46c;stop-opacity:1"/></linearGradient><linearGradient id="_Linear27" x1="0" y1="0" x2="1" y2="0" gradientUnits="userSpaceOnUse" gradientTransform="matrix(1.59457e-14,-260.413,260.413,1.59457e-14,775.6,1098.69)"><stop offset="0" style="stop-color:#39843f;stop-opacity:1"/><stop offset="0.07" style="stop-color:#39843f;stop-opacity:1"/><stop offset="0.24" style="stop-color:#3a8840;stop-opacity:1"/><stop offset="0.44" style="stop-color:#3c9243;stop-opacity:1"/><stop offset="0.66" style="stop-color:#40a547;stop-opacity:1"/><stop offset="0.72" style="stop-color:#42ad49;stop-opacity:1"/><stop offset="0.79" style="stop-color:#64bd56;stop-opacity:1"/><stop offset="0.95" style="stop-color:#9dd08c;stop-opacity:1"/><stop offset="1" style="stop-color:#9dd08c;stop-opacity:1"/></linearGradient><linearGradient id="_Linear28" x1="0" y1="0" x2="1" y2="0" gradientUnits="userSpaceOnUse" gradientTransform="matrix(4.0694e-14,-664.583,664.583,4.0694e-14,215.569,1040.36)"><stop offset="0" style="stop-color:#42ad49;stop-opacity:1"/><stop offset="0.63" style="stop-color:#64bd56;stop-opacity:1"/><stop offset="0.9" style="stop-color:#9dd08c;stop-opacity:1"/><stop offset="1" style="stop-color:#c6e3c1;stop-opacity:1"/></linearGradient><linearGradient id="_Linear29" x1="0" y1="0" x2="1" y2="0" gradientUnits="userSpaceOnUse" gradientTransform="matrix(537.775,0,0,537.775,-202.139,1042.44)"><stop offset="0" style="stop-color:#39843f;stop-opacity:1"/><stop offset="0.03" style="stop-color:#448241;stop-opacity:1"/><stop offset="0.14" style="stop-color:#54754e;stop-opacity:1"/><stop offset="0.25" style="stop-color:#546650;stop-opacity:1"/><stop offset="0.36" style="stop-color:#4d574c;stop-opacity:1"/><stop offset="0.47" style="stop-color:#414541;stop-opacity:1"/><stop offset="0.56" style="stop-color:#2e2f2e;stop-opacity:1"/><stop offset="0.65" style="stop-color:#121212;stop-opacity:1"/><stop offset="0.73" style="stop-color:#000;stop-opacity:1"/><stop offset="1" style="stop-color:#000;stop-opacity:1"/></linearGradient><linearGradient id="_Linear30" x1="0" y1="0" x2="1" y2="0" gradientUnits="userSpaceOnUse" gradientTransform="matrix(1.26292e-14,-206.25,206.25,1.26292e-14,414.693,1044.53)"><stop offset="0" style="stop-color:#39843f;stop-opacity:1"/><stop offset="1" style="stop-color:#306c35;stop-opacity:1"/></linearGradient><linearGradient id="_Linear31" x1="0" y1="0" x2="1" y2="0" gradientUnits="userSpaceOnUse" gradientTransform="matrix(133.65,0,0,133.65,-68.9274,1081.12)"><stop offset="0" style="stop-color:#39843f;stop-opacity:1"/><stop offset="0.03" style="stop-color:#448241;stop-opacity:1"/><stop offset="0.14" style="stop-color:#54754e;stop-opacity:1"/><stop offset="0.25" style="stop-color:#546650;stop-opacity:1"/><stop offset="0.36" style="stop-color:#4d574c;stop-opacity:1"/><stop offset="0.47" style="stop-color:#414541;stop-opacity:1"/><stop offset="0.56" style="stop-color:#2e2f2e;stop-opacity:1"/><stop offset="0.65" style="stop-color:#121212;stop-opacity:1"/><stop offset="0.73" style="stop-color:#000;stop-opacity:1"/><stop offset="1" style="stop-color:#000;stop-opacity:1"/></linearGradient><linearGradient id="_Linear32" x1="0" y1="0" x2="1" y2="0" gradientUnits="userSpaceOnUse" gradientTransform="matrix(3.56114e-14,-581.578,581.578,3.56114e-14,-23.6674,962.006)"><stop offset="0" style="stop-color:#000;stop-opacity:1"/><stop offset="0" style="stop-color:#000;stop-opacity:1"/><stop offset="0.25" style="stop-color:#264f27;stop-opacity:1"/><stop offset="0.32" style="stop-color:#275229;stop-opacity:1"/><stop offset="0.39" style="stop-color:#2b5b2d;stop-opacity:1"/><stop offset="0.47" style="stop-color:#316934;stop-opacity:1"/><stop offset="0.55" style="stop-color:#387e3d;stop-opacity:1"/><stop offset="0.57" style="stop-color:#39843f;stop-opacity:1"/><stop offset="0.76" style="stop-color:#42ad49;stop-opacity:1"/><stop offset="0.95" style="stop-color:#9dd08c;stop-opacity:1"/><stop offset="1" style="stop-color:#9dd08c;stop-opacity:1"/></linearGradient><linearGradient id="_Linear33" x1="0" y1="0" x2="1" y2="0" gradientUnits="userSpaceOnUse" gradientTransform="matrix(3.57284e-14,-583.489,583.489,3.57284e-14,5.49927,962.19)"><stop offset="0" style="stop-color:#000;stop-opacity:1"/><stop offset="0" style="stop-color:#000;stop-opacity:1"/><stop offset="0.25" style="stop-color:#264f27;stop-opacity:1"/><stop offset="0.32" style="stop-color:#275229;stop-opacity:1"/><stop offset="0.39" style="stop-color:#2b5b2d;stop-opacity:1"/><stop offset="0.47" style="stop-color:#316934;stop-opacity:1"/><stop offset="0.55" style="stop-color:#387e3d;stop-opacity:1"/><stop offset="0.57" style="stop-color:#39843f;stop-opacity:1"/><stop offset="0.76" style="stop-color:#42ad49;stop-opacity:1"/><stop offset="0.95" style="stop-color:#9dd08c;stop-opacity:1"/><stop offset="1" style="stop-color:#9dd08c;stop-opacity:1"/></linearGradient><linearGradient id="_Linear34" x1="0" y1="0" x2="1" y2="0" gradientUnits="userSpaceOnUse" gradientTransform="matrix(3.58565e-14,-585.581,585.581,3.58565e-14,36.0547,962.391)"><stop offset="0" style="stop-color:#000;stop-opacity:1"/><stop offset="0" style="stop-color:#000;stop-opacity:1"/><stop offset="0.25" style="stop-color:#264f27;stop-opacity:1"/><stop offset="0.32" style="stop-color:#275229;stop-opacity:1"/><stop offset="0.39" style="stop-color:#2b5b2d;stop-opacity:1"/><stop offset="0.47" style="stop-color:#316934;stop-opacity:1"/><stop offset="0.55" style="stop-color:#387e3d;stop-opacity:1"/><stop offset="0.57" style="stop-color:#39843f;stop-opacity:1"/><stop offset="0.76" style="stop-color:#42ad49;stop-opacity:1"/><stop offset="0.95" style="stop-color:#9dd08c;stop-opacity:1"/><stop offset="1" style="stop-color:#9dd08c;stop-opacity:1"/></linearGradient><linearGradient id="_Linear35" x1="0" y1="0" x2="1" y2="0" gradientUnits="userSpaceOnUse" gradientTransform="matrix(3.5493e-14,-579.644,579.644,3.5493e-14,165.916,963.046)"><stop offset="0" style="stop-color:#000;stop-opacity:1"/><stop offset="0.34" style="stop-color:#264f27;stop-opacity:1"/><stop offset="0.39" style="stop-color:#275229;stop-opacity:1"/><stop offset="0.44" style="stop-color:#2b5b2d;stop-opacity:1"/><stop offset="0.5" style="stop-color:#316934;stop-opacity:1"/><stop offset="0.57" style="stop-color:#387e3d;stop-opacity:1"/><stop offset="0.58" style="stop-color:#39843f;stop-opacity:1"/><stop offset="1" style="stop-color:#42ad49;stop-opacity:1"/></linearGradient><linearGradient id="_Linear36" x1="0" y1="0" x2="1" y2="0" gradientUnits="userSpaceOnUse" gradientTransform="matrix(3.53708e-14,-577.649,577.649,3.53708e-14,183.972,963.631)"><stop offset="0" style="stop-color:#000;stop-opacity:1"/><stop offset="0.34" style="stop-color:#264f27;stop-opacity:1"/><stop offset="0.39" style="stop-color:#275229;stop-opacity:1"/><stop offset="0.44" style="stop-color:#2b5b2d;stop-opacity:1"/><stop offset="0.5" style="stop-color:#316934;stop-opacity:1"/><stop offset="0.57" style="stop-color:#387e3d;stop-opacity:1"/><stop offset="0.58" style="stop-color:#39843f;stop-opacity:1"/><stop offset="1" style="stop-color:#42ad49;stop-opacity:1"/></linearGradient><linearGradient id="_Linear37" x1="0" y1="0" x2="1" y2="0" gradientUnits="userSpaceOnUse" gradientTransform="matrix(3.56204e-14,-581.725,581.725,3.56204e-14,145.777,962.364)"><stop offset="0" style="stop-color:#000;stop-opacity:1"/><stop offset="0.34" style="stop-color:#264f27;stop-opacity:1"/><stop offset="0.39" style="stop-color:#275229;stop-opacity:1"/><stop offset="0.44" style="stop-color:#2b5b2d;stop-opacity:1"/><stop offset="0.5" style="stop-color:#316934;stop-opacity:1"/><stop offset="0.57" style="stop-color:#387e3d;stop-opacity:1"/><stop offset="0.58" style="stop-color:#39843f;stop-opacity:1"/><stop offset="1" style="stop-color:#42ad49;stop-opacity:1"/></linearGradient><linearGradient id="_Linear38" x1="0" y1="0" x2="1" y2="0" gradientUnits="userSpaceOnUse" gradientTransform="matrix(3.52832e-14,-576.218,576.218,3.52832e-14,203.416,964.41)"><stop offset="0" style="stop-color:#000;stop-opacity:1"/><stop offset="0.34" style="stop-color:#264f27;stop-opacity:1"/><stop offset="0.39" style="stop-color:#275229;stop-opacity:1"/><stop offset="0.44" style="stop-color:#2b5b2d;stop-opacity:1"/><stop offset="0.5" style="stop-color:#316934;stop-opacity:1"/><stop offset="0.57" style="stop-color:#387e3d;stop-opacity:1"/><stop offset="0.58" style="stop-color:#39843f;stop-opacity:1"/><stop offset="1" style="stop-color:#42ad49;stop-opacity:1"/></linearGradient><linearGradient id="_Linear39" x1="0" y1="0" x2="1" y2="0" gradientUnits="userSpaceOnUse" gradientTransform="matrix(3.49204e-14,-570.294,570.294,3.49204e-14,261.749,966.409)"><stop offset="0" style="stop-color:#000;stop-opacity:1"/><stop offset="0.34" style="stop-color:#264f27;stop-opacity:1"/><stop offset="0.39" style="stop-color:#275229;stop-opacity:1"/><stop offset="0.44" style="stop-color:#2b5b2d;stop-opacity:1"/><stop offset="0.5" style="stop-color:#316934;stop-opacity:1"/><stop offset="0.57" style="stop-color:#387e3d;stop-opacity:1"/><stop offset="0.58" style="stop-color:#39843f;stop-opacity:1"/><stop offset="1" style="stop-color:#42ad49;stop-opacity:1"/></linearGradient><linearGradient id="_Linear40" x1="0" y1="0" x2="1" y2="0" gradientUnits="userSpaceOnUse" gradientTransform="matrix(3.50479e-14,-572.375,572.375,3.50479e-14,241.611,965.726)"><stop offset="0" style="stop-color:#000;stop-opacity:1"/><stop offset="0.34" style="stop-color:#264f27;stop-opacity:1"/><stop offset="0.39" style="stop-color:#275229;stop-opacity:1"/><stop offset="0.44" style="stop-color:#2b5b2d;stop-opacity:1"/><stop offset="0.5" style="stop-color:#316934;stop-opacity:1"/><stop offset="0.57" style="stop-color:#387e3d;stop-opacity:1"/><stop offset="0.58" style="stop-color:#39843f;stop-opacity:1"/><stop offset="1" style="stop-color:#42ad49;stop-opacity:1"/></linearGradient><linearGradient id="_Linear41" x1="0" y1="0" x2="1" y2="0" gradientUnits="userSpaceOnUse" gradientTransform="matrix(3.51385e-14,-573.855,573.855,3.51385e-14,222.861,964.995)"><stop offset="0" style="stop-color:#000;stop-opacity:1"/><stop offset="0.34" style="stop-color:#264f27;stop-opacity:1"/><stop offset="0.39" style="stop-color:#275229;stop-opacity:1"/><stop offset="0.44" style="stop-color:#2b5b2d;stop-opacity:1"/><stop offset="0.5" style="stop-color:#316934;stop-opacity:1"/><stop offset="0.57" style="stop-color:#387e3d;stop-opacity:1"/><stop offset="0.58" style="stop-color:#39843f;stop-opacity:1"/><stop offset="1" style="stop-color:#42ad49;stop-opacity:1"/></linearGradient><linearGradient id="_Linear42" x1="0" y1="0" x2="1" y2="0" gradientUnits="userSpaceOnUse" gradientTransform="matrix(5.58596e-14,-912.257,912.257,5.58596e-14,1237.44,1011.19)"><stop offset="0" style="stop-color:#1d3a1d;stop-opacity:1"/><stop offset="0.11" style="stop-color:#1d3a1d;stop-opacity:1"/><stop offset="0.4" style="stop-color:#264f27;stop-opacity:1"/><stop offset="0.56" style="stop-color:#275128;stop-opacity:1"/><stop offset="0.7" style="stop-color:#29572c;stop-opacity:1"/><stop offset="0.84" style="stop-color:#2d6130;stop-opacity:1"/><stop offset="0.93" style="stop-color:#306c35;stop-opacity:1"/><stop offset="1" style="stop-color:#306c35;stop-opacity:1"/></linearGradient><linearGradient id="_Linear43" x1="0" y1="0" x2="1" y2="0" gradientUnits="userSpaceOnUse" gradientTransform="matrix(6.09714e-14,-995.738,995.738,6.09714e-14,1238.9,1088.28)"><stop offset="0" style="stop-color:#306c35;stop-opacity:1"/><stop offset="0.37" style="stop-color:#42ad49;stop-opacity:1"/><stop offset="0.7" style="stop-color:#64bd56;stop-opacity:1"/><stop offset="0.89" style="stop-color:#9dd08c;stop-opacity:1"/><stop offset="1" style="stop-color:#d4e9cc;stop-opacity:1"/></linearGradient><linearGradient id="_Linear44" x1="0" y1="0" x2="1" y2="0" gradientUnits="userSpaceOnUse" gradientTransform="matrix(8.66693e-17,-1.41542,1.41542,8.66693e-17,1776.86,954.944)"><stop offset="0" style="stop-color:#42ad49;stop-opacity:1"/><stop offset="0.4" style="stop-color:#42ad49;stop-opacity:1"/><stop offset="1" style="stop-color:#1d3a1d;stop-opacity:1"/></linearGradient><linearGradient id="_Linear45" x1="0" y1="0" x2="1" y2="0" gradientUnits="userSpaceOnUse" gradientTransform="matrix(2.9764e-16,-4.86083,4.86083,2.9764e-16,1818.34,959.805)"><stop offset="0" style="stop-color:#42ad49;stop-opacity:1"/><stop offset="0.4" style="stop-color:#42ad49;stop-opacity:1"/><stop offset="1" style="stop-color:#1d3a1d;stop-opacity:1"/></linearGradient><linearGradient id="_Linear46" x1="0" y1="0" x2="1" y2="0" gradientUnits="userSpaceOnUse" gradientTransform="matrix(751.389,0,0,751.389,1740.92,961.889)"><stop offset="0" style="stop-color:#39843f;stop-opacity:1"/><stop offset="0.23" style="stop-color:#306c35;stop-opacity:1"/><stop offset="0.28" style="stop-color:#3c6938;stop-opacity:1"/><stop offset="0.39" style="stop-color:#486143;stop-opacity:1"/><stop offset="0.51" style="stop-color:#4a5846;stop-opacity:1"/><stop offset="0.62" style="stop-color:#454c43;stop-opacity:1"/><stop offset="0.72" style="stop-color:#3a3d3a;stop-opacity:1"/><stop offset="0.82" style="stop-color:#282828;stop-opacity:1"/><stop offset="0.92" style="stop-color:#0e0e0f;stop-opacity:1"/><stop offset="1" style="stop-color:#000;stop-opacity:1"/></linearGradient><linearGradient id="_Linear47" x1="0" y1="0" x2="1" y2="0" gradientUnits="userSpaceOnUse" gradientTransform="matrix(368.229,0,0,368.229,1083.8,1012.24)"><stop offset="0" style="stop-color:#264f27;stop-opacity:1"/><stop offset="0.14" style="stop-color:#344e2e;stop-opacity:1"/><stop offset="0.46" style="stop-color:#3e483a;stop-opacity:1"/><stop offset="0.72" style="stop-color:#363935;stop-opacity:1"/><stop offset="0.9" style="stop-color:#1c1c1c;stop-opacity:1"/><stop offset="1" style="stop-color:#000;stop-opacity:1"/></linearGradient><linearGradient id="_Linear48" x1="0" y1="0" x2="1" y2="0" gradientUnits="userSpaceOnUse" gradientTransform="matrix(1.10984e-14,-181.25,181.25,1.10984e-14,1581.37,1104.94)"><stop offset="0" style="stop-color:#1d3a1d;stop-opacity:1"/><stop offset="0.6" style="stop-color:#42ad49;stop-opacity:1"/><stop offset="1" style="stop-color:#42ad49;stop-opacity:1"/></linearGradient><linearGradient id="_Linear49" x1="0" y1="0" x2="1" y2="0" gradientUnits="userSpaceOnUse" gradientTransform="matrix(5.16337e-15,-84.3242,84.3242,5.16337e-15,1843,1100.78)"><stop offset="0" style="stop-color:#42ad49;stop-opacity:1"/><stop offset="0.4" style="stop-color:#42ad49;stop-opacity:1"/><stop offset="1" style="stop-color:#1d3a1d;stop-opacity:1"/></linearGradient><linearGradient id="_Linear50" x1="0" y1="0" x2="1" y2="0" gradientUnits="userSpaceOnUse" gradientTransform="matrix(5.36224e-15,-87.5721,87.5721,5.36224e-15,1805.46,1102.86)"><stop offset="0" style="stop-color:#42ad49;stop-opacity:1"/><stop offset="0.4" style="stop-color:#42ad49;stop-opacity:1"/><stop offset="1" style="stop-color:#1d3a1d;stop-opacity:1"/></linearGradient><linearGradient id="_Linear51" x1="0" y1="0" x2="1" y2="0" gradientUnits="userSpaceOnUse" gradientTransform="matrix(186.111,0,0,186.111,1571.47,1056.68)"><stop offset="0" style="stop-color:#264f27;stop-opacity:1"/><stop offset="0.14" style="stop-color:#344e2e;stop-opacity:1"/><stop offset="0.46" style="stop-color:#3e483a;stop-opacity:1"/><stop offset="0.72" style="stop-color:#363935;stop-opacity:1"/><stop offset="0.9" style="stop-color:#1c1c1c;stop-opacity:1"/><stop offset="1" style="stop-color:#000;stop-opacity:1"/></linearGradient><linearGradient id="_Linear52" x1="0" y1="0" x2="1" y2="0" gradientUnits="userSpaceOnUse" gradientTransform="matrix(655.556,0,0,655.556,1915.92,1067.52)"><stop offset="0" style="stop-color:#39843f;stop-opacity:1"/><stop offset="0.11" style="stop-color:#39843f;stop-opacity:1"/><stop offset="1" style="stop-color:#306c35;stop-opacity:1"/></linearGradient><linearGradient id="_Linear53" x1="0" y1="0" x2="1" y2="0" gradientUnits="userSpaceOnUse" gradientTransform="matrix(68.0554,0,0,68.0554,1847.86,1058.11)"><stop offset="0" style="stop-color:#264f27;stop-opacity:1"/><stop offset="0.14" style="stop-color:#344e2e;stop-opacity:1"/><stop offset="0.46" style="stop-color:#3e483a;stop-opacity:1"/><stop offset="0.72" style="stop-color:#363935;stop-opacity:1"/><stop offset="0.9" style="stop-color:#1c1c1c;stop-opacity:1"/><stop offset="1" style="stop-color:#000;stop-opacity:1"/></linearGradient><linearGradient id="_Linear57" x1="0" y1="0" x2="1" y2="0" gradientUnits="userSpaceOnUse" gradientTransform="matrix(5636.11,0,0,5636.11,-2325.52,1483.5)"><stop offset="0" style="stop-color:#6d6e71;stop-opacity:0.56"/><stop offset="0.28" style="stop-color:#6d6e71;stop-opacity:0.56"/><stop offset="1" style="stop-color:#f1f2f2;stop-opacity:0.56"/></linearGradient><linearGradient id="_Linear59" x1="0" y1="0" x2="1" y2="0" gradientUnits="userSpaceOnUse" gradientTransform="matrix(3.46333,-99.1796,99.1796,3.46333,380.633,1223.74)"><stop offset="0" style="stop-color:#42ad49;stop-opacity:1"/><stop offset="0.17" style="stop-color:#42ad49;stop-opacity:1"/><stop offset="0.45" style="stop-color:#64bd56;stop-opacity:1"/><stop offset="0.68" style="stop-color:#9dd08c;stop-opacity:1"/><stop offset="1" style="stop-color:#f6faf4;stop-opacity:1"/></linearGradient></defs></svg>