<svg xmlns="http://www.w3.org/2000/svg" width="960" height="320" viewBox="0 0 960 320" role="img" aria-label="KOTC logo">
    <defs>
      <linearGradient id="goldGrad" x1="0%" y1="0%" x2="0%" y2="100%">
        <stop offset="0%" stop-color="#FDB64B"/>
        <stop offset="100%" stop-color="#F7931A"/>
      </linearGradient>
      <filter id="softGlow" x="-50%" y="-50%" width="200%" height="200%">
        <feGaussianBlur stdDeviation="3" result="glow"/>
        <feMerge>
          <feMergeNode in="glow"/>
          <feMergeNode in="SourceGraphic"/>
        </feMerge>
      </filter>
    </defs>
    <g transform="translate(20,20)"><polygon points="156.37,99.00 156.37,141.00 120.00,162.00 83.63,141.00 83.63,99.00 120.00,78.00" fill="url(#goldGrad)" filter="url(#softGlow)"/>
<path d="M 120.00 98.00 L 128.00 118.00 L 118.00 118.00 L 130.00 138.00 L 108.00 122.00 L 122.00 122.00 L 114.00 142.00 Z" fill="#FFFFFF"/>
<g fill="url(#goldGrad)"><rect x="112" y="155" width="16" height="60" rx="8" /></g>
<g fill="url(#goldGrad)"><rect x="126" y="180" width="24" height="10" rx="2" /><rect x="126" y="198" width="16" height="10" rx="2" /></g>
<path d="
    M 70 230
    C 94.0 222, 106.0 238, 130.0 230
    C 154.0 222, 166.0 238, 190 230
    L 190 236 L 70 236 Z
    " fill="#00E0FF" opacity="0.9"/>
</g>
    <g transform="translate(240, 60)">
      <text x="0" y="0" font-family="Inter, Montserrat, Arial, sans-serif" font-size="56" font-weight="800" fill="#0E1016">KEYS OF THE CARIBBEAN</text>
      <text x="0" y="56" font-family="Inter, Montserrat, Arial, sans-serif" font-size="22" font-weight="500" fill="#3C5A99" opacity="0.95">Flash Treasure Hunt</text>
      <g transform="translate(0, 90)">
        <rect x="0" y="-14" width="740" height="1.5" fill="#3C5A99" opacity="0.3"/>
      </g>
    </g>
    </svg>